<svg width="73" height="73" viewBox="0 0 73 73" fill="none" xmlns="http://www.w3.org/2000/svg">
<path d="M21.469 2.09067C9.11136 6.57907 0.325448 18.6833 0.0118016 31.7941C-0.22581 41.7319 3.11976 50.341 10.4876 57.0243C20.4007 66.0181 31.8973 68.1657 44.5839 63.8592C45.4412 63.5673 45.7605 62.9816 45.5153 62.305C45.2758 61.651 44.6257 61.4217 43.7931 61.7307C39.461 63.3342 34.9977 63.9692 30.388 63.5635C24.4781 63.0442 19.1671 60.9763 14.4205 57.4337C14.0822 57.1816 13.9168 56.92 13.9795 56.4879C14.1164 55.5515 14.1658 54.6019 14.3445 53.675C16.9411 40.1037 33.0245 33.7957 44.1885 41.9593C45.9069 43.216 47.3668 44.721 48.6099 46.4458C49.1517 47.1983 50.0318 47.2817 50.5203 46.6524C50.9385 46.1141 50.7998 45.6024 50.4348 45.0906C48.6175 42.5469 46.3935 40.4335 43.6467 38.9342C42.1659 38.1249 40.5882 37.4956 39.0275 36.7715C42.4035 34.7339 44.5858 31.7638 45.1446 27.7644C45.7073 23.7347 44.5344 20.2111 41.6546 17.3205C36.7712 12.417 28.7647 12.5554 24.0181 17.6219C21.7276 20.067 20.5775 23.0012 20.7049 26.3523C20.8798 30.9658 23.0981 34.4136 27.0462 36.8341C18.2717 39.8706 13.2002 45.9435 11.727 55.0758C11.5692 54.926 11.4628 54.835 11.3658 54.7346C4.13293 47.2647 1.0744 38.3713 2.68825 28.0942C4.83056 14.4508 15.6751 4.01833 29.2456 2.46407C38.923 1.35524 47.4371 4.1567 54.421 10.9651C61.2375 17.6105 64.2485 25.8197 63.6079 35.3272C63.5186 36.6464 63.2677 37.9524 63.0947 39.2659C63.0111 39.9104 63.3285 40.407 63.9178 40.5738C64.4538 40.7254 65.0393 40.4392 65.2484 39.9028C65.3321 39.6848 65.3701 39.446 65.4157 39.2128C66.1932 35.0941 66.1894 30.9809 65.4366 26.8546C63.0719 13.886 52.6227 3.24878 39.6853 0.705103C38.1322 0.399938 36.5545 0.231244 34.9863 0H31.002C30.8442 0.0379088 30.6864 0.0985628 30.5268 0.109935C27.4112 0.333597 24.404 1.02543 21.469 2.09067ZM22.9764 26.0566C22.9764 20.4859 27.4112 16.0354 32.977 16.0165C38.5295 15.9994 42.9947 20.4499 43.0099 26.0187C43.0251 31.5496 38.5466 36.0228 32.9808 36.0361C27.4968 36.0494 22.9764 31.5401 22.9783 26.0566H22.9764Z" fill="#FAFAFA"/>
<path d="M69.3085 54.6696C69.0391 54.6447 68.764 54.6657 68.4491 54.6657C68.4491 52.9349 68.4871 51.313 68.4415 49.6948C68.3353 45.8243 65.2887 42.4639 61.5573 42.0532C57.4636 41.6023 53.8043 44.0572 52.8444 47.9583C52.6415 48.7797 52.594 49.6528 52.5656 50.5049C52.5219 51.8784 52.5542 53.2539 52.5542 54.66C52.3171 54.66 52.1767 54.6581 52.0363 54.66C49.629 54.7154 48.0185 56.3679 48.0109 58.8056C48.0033 61.121 47.9881 63.4345 48.0166 65.75C48.045 67.9699 48.9252 69.8077 50.5832 71.2711C51.6436 72.2072 52.9279 72.6485 54.2558 73H66.7513C67.1516 72.8854 67.5594 72.7879 67.9521 72.6504C70.5813 71.7258 72.2071 69.8841 72.8539 67.1541C72.89 66.9994 72.9507 66.8485 73 66.6956V57.8122C72.9089 57.6001 72.816 57.3881 72.7268 57.1741C72.0819 55.6515 70.9361 54.8205 69.3066 54.6696H69.3085ZM54.9899 48.9058C55.3674 46.0077 58.0707 44.0687 60.9844 44.3056C63.8413 44.5386 66.0987 46.8999 66.1727 49.7865C66.2145 51.3798 66.1803 52.9769 66.1803 54.6275H54.9444C54.9444 52.6961 54.7471 50.7723 54.9899 48.9058ZM70.7293 65.4768C70.7179 68.5602 68.6028 70.6979 65.5467 70.7056C62.1871 70.7132 58.8257 70.7132 55.4661 70.7056C52.4157 70.6979 50.293 68.5526 50.2835 65.4768C50.2759 63.2798 50.2778 61.0828 50.2835 58.8858C50.2873 57.5829 50.9095 56.9563 52.1995 56.9544C53.5956 56.9525 54.9918 56.9525 56.388 56.9525C57.7842 56.9525 59.1804 56.9525 60.5766 56.9525C63.2988 56.9525 66.0191 56.9506 68.7412 56.9525C70.1261 56.9525 70.7274 57.56 70.7293 58.9565C70.7331 61.1287 70.7369 63.3027 70.7293 65.4749V65.4768Z" fill="#FAFAFA"/>
<path d="M61.353 60.0869C59.746 59.7585 58.1635 60.3797 57.4163 61.6345C56.6834 62.8626 56.8984 64.4901 58.2188 65.2301C59.2874 65.83 59.3693 66.5364 59.2854 67.4291C59.271 67.5835 59.2772 67.7397 59.2854 67.8941C59.3304 68.5649 59.8381 69.0122 60.5301 68.9997C61.1933 68.9873 61.6928 68.5543 61.7236 67.9189C61.7502 67.3883 61.6867 66.8505 61.7522 66.3252C61.7809 66.0962 61.9713 65.8016 62.1903 65.6845C63.3572 65.0615 63.9324 64.1653 64 63.1004C63.9836 61.6309 62.8618 60.3992 61.3489 60.0904L61.353 60.0869ZM60.5157 63.9204C59.9855 63.9292 59.488 63.5139 59.4717 63.0472C59.4532 62.5804 59.9159 62.1491 60.4605 62.1261C61.0275 62.1012 61.5516 62.5414 61.5414 63.0312C61.5311 63.5104 61.0685 63.9115 60.5178 63.9204H60.5157Z" fill="#FAFAFA"/>
</svg>
