<svg width="56" height="52" viewBox="0 0 56 52" fill="none" xmlns="http://www.w3.org/2000/svg">
<path d="M3.56212 37.7893C6.04384 37.7893 8.52701 37.7893 11.0087 37.7893H11.668C11.562 38.5095 11.4676 39.1673 11.366 39.8237C11.1728 41.0755 10.9768 42.3272 10.7822 43.5804C10.7168 44.0015 10.7677 44.3922 11.1815 44.6173C11.5983 44.8438 11.9831 44.7465 12.3273 44.4372C12.503 44.2804 12.6831 44.1293 12.8617 43.974C14.9528 42.1544 17.0918 40.3857 19.1132 38.4921C19.9264 37.7312 20.757 37.7544 21.7488 37.8256V38.3774C21.7488 39.6829 21.7488 40.9869 21.7488 42.2924C21.7517 44.2208 22.8931 45.3651 24.823 45.3651C28.5376 45.3666 32.2522 45.3724 35.9653 45.3564C36.3777 45.3549 36.6754 45.4827 36.9789 45.7485C39.2167 47.7031 41.4704 49.6402 43.714 51.5876C44.0741 51.8998 44.4328 52.1597 44.9265 51.8823C45.4203 51.605 45.3854 51.1476 45.3157 50.6858C45.1908 49.8624 45.0558 49.0405 44.9338 48.2171C44.7944 47.279 44.6637 46.341 44.5243 45.3651C47.3066 45.3651 50.0032 45.368 52.7013 45.3651C54.486 45.3622 55.6608 44.186 55.6623 42.3998C55.6652 36.112 55.6637 29.8228 55.6623 23.535C55.6623 23.3012 55.6594 23.0616 55.6143 22.8321C55.3384 21.4265 54.2246 20.5581 52.6665 20.5566C47.1396 20.5508 41.6142 20.5537 36.0873 20.5537H35.3758C35.3758 20.3054 35.3758 20.1108 35.3758 19.9177C35.3758 18.3043 35.3845 16.6925 35.3685 15.0791C35.3641 14.6856 35.3467 14.2688 35.2175 13.9043C35.0694 13.489 35.1899 13.2552 35.476 12.9721C37.8052 10.6631 40.1214 8.33971 42.4346 6.01628C42.5741 5.87687 42.6684 5.691 42.8137 5.48624C43.0939 5.76651 43.2711 5.94222 43.4715 6.14116C43.3161 6.30671 43.197 6.43885 43.0721 6.56374C41.8857 7.76031 40.695 8.95252 39.5115 10.152C39.0468 10.6225 39.0148 11.0973 39.3997 11.4807C39.7874 11.8655 40.2201 11.8452 40.6819 11.3892C42.166 9.92691 43.6443 8.45734 45.1211 6.98776C45.7238 6.38803 45.7426 6.00466 45.1574 5.36136C44.8321 5.00413 44.4502 4.69773 44.1003 4.3739C44.6535 3.59119 44.8525 2.82446 44.6114 1.98076C44.1003 0.200427 41.7478 -0.820432 40.104 0.842277C36.6028 4.38697 33.0668 7.89971 29.5614 11.44C29.2259 11.7798 28.8919 11.9018 28.4243 11.9018C20.0179 11.8902 11.6099 11.896 3.20344 11.8888C2.29439 11.8888 1.44198 12.0674 0.843698 12.7746C0.480661 13.203 0.275908 13.7635 0 14.2645V35.4687C0.79142 37.3551 1.45505 37.7878 3.55776 37.7878L3.56212 37.7893ZM35.3772 34.6802C35.3845 30.7841 35.3801 26.8894 35.3801 22.9933V22.2861H36.0191C41.5082 22.2861 46.9973 22.2861 52.4864 22.2861C53.6017 22.2861 53.9139 22.5969 53.9153 23.6991C53.9153 29.878 53.9153 36.0568 53.9153 42.2357C53.9153 43.2885 53.5683 43.6342 52.5154 43.6342C49.617 43.6342 46.7185 43.6342 43.82 43.6342C42.8238 43.6342 42.5232 44.0059 42.6844 44.9861C42.8921 46.2466 43.0823 47.5085 43.303 48.9083C42.1486 47.9093 41.0972 47.0017 40.0459 46.0926C39.2515 45.4058 38.479 44.6899 37.6513 44.0437C37.3637 43.8186 36.9441 43.653 36.5825 43.6501C32.6878 43.6225 28.7932 43.6342 24.8971 43.6327C23.8457 43.6327 23.5074 43.29 23.5059 42.2241C23.5045 40.7763 23.5059 39.3285 23.5059 37.7878H24.1681C26.8676 37.7878 29.5672 37.7907 32.2667 37.7878C34.2169 37.7849 35.3743 36.6363 35.3772 34.6802ZM34.8152 8.63014C36.9499 6.49403 39.0831 4.35647 41.2236 2.22472C41.3876 2.06208 41.5924 1.82102 41.7754 1.82393C42.1036 1.82828 42.529 1.89799 42.728 2.11291C42.9051 2.30314 42.8688 2.73007 42.85 3.04809C42.8412 3.19766 42.6641 3.35013 42.5377 3.47647C40.3668 5.65324 38.1929 7.8271 36.0191 9.99952C35.9697 10.0489 35.9072 10.0866 35.81 10.1607C35.4193 9.72942 35.0331 9.30394 34.6206 8.84796C34.6569 8.8073 34.7325 8.71291 34.8167 8.62869L34.8152 8.63014ZM33.3297 10.181C33.7174 10.5789 34.1269 10.9971 34.5524 11.4328C34.1109 11.851 33.6564 12.2808 33.1917 12.7194C32.8127 12.323 32.4148 11.9062 32.03 11.5039C32.4439 11.0828 32.881 10.6385 33.3297 10.181ZM30.694 12.747C31.1398 13.1841 31.5392 13.5762 31.9676 13.9944C31.8732 14.1091 31.7948 14.2209 31.6989 14.3182C30.1277 15.8952 28.5971 17.5173 26.9548 19.0174C26.4073 19.5169 25.5752 19.7028 24.8201 19.9583C25.0975 19.0638 25.2093 18.1824 25.915 17.5071C27.5356 15.9577 29.0981 14.3443 30.694 12.747ZM1.73822 15.1401C1.73822 14.0103 2.11433 13.627 3.22667 13.627C11.0537 13.627 18.8808 13.627 26.7079 13.627H27.2829C27.1101 13.8245 27.0143 13.945 26.9068 14.0539C26.4218 14.5433 25.9702 15.0733 25.4402 15.5075C24.2131 16.5109 23.487 17.799 23.0761 19.3049C22.9091 19.9148 22.6332 20.4956 22.4952 21.1099C22.4299 21.4047 22.4647 21.8447 22.6462 22.0364C22.8292 22.2295 23.291 22.3224 23.5611 22.2368C24.8361 21.8331 26.0907 21.3669 27.341 20.8906C27.6169 20.7861 27.8725 20.5813 28.086 20.3693C29.7734 18.6993 31.4477 17.0163 33.1264 15.3391C33.2643 15.2011 33.4095 15.0675 33.6622 14.8279V15.522C33.6622 21.8461 33.6622 28.1702 33.6622 34.4943C33.6622 35.7112 33.2948 36.0743 32.0663 36.0743C28.0627 36.0743 24.0577 36.0815 20.0542 36.067C19.5154 36.0656 19.0943 36.2079 18.6833 36.5738C16.9277 38.1436 15.143 39.6814 13.3685 41.2294C13.2363 41.3441 13.0984 41.4545 12.8646 41.6491C13.0621 40.2971 13.2262 39.0686 13.4236 37.8444C13.6763 36.2718 13.5166 36.0728 11.912 36.0728C9.0309 36.0728 6.14984 36.0728 3.27024 36.0728C2.11142 36.0728 1.73967 35.6982 1.73967 34.5466C1.73967 28.0773 1.73967 21.608 1.73967 15.1387L1.73822 15.1401Z" fill="#435188"/>
<path d="M3.26834 36.074C6.1494 36.0769 9.03046 36.074 11.9101 36.074C13.5161 36.074 13.6759 36.273 13.4218 37.8456C13.2243 39.0698 13.0602 40.2998 12.8627 41.6503C13.0965 41.4557 13.2344 41.3453 13.3666 41.2306C15.1411 39.6811 16.9243 38.1433 18.6814 36.575C19.0924 36.2076 19.5135 36.0653 20.0523 36.0682C24.0558 36.0827 28.0609 36.0769 32.0644 36.0755C33.2929 36.0755 33.6603 35.7124 33.6603 34.4955C33.6603 28.1714 33.6603 21.8473 33.6603 15.5232V14.8291C33.4091 15.0687 33.2639 15.2023 33.1245 15.3403C31.4458 17.0175 29.7715 18.7005 28.0841 20.3705C27.8706 20.5811 27.615 20.7858 27.3391 20.8918C26.0888 21.3681 24.8342 21.8343 23.5592 22.238C23.2891 22.3236 22.8273 22.2292 22.6443 22.0376C22.4628 21.8459 22.428 21.4059 22.4933 21.1111C22.6313 20.4968 22.9072 19.9145 23.0742 19.3061C23.4866 17.8016 24.2127 16.5121 25.4383 15.5087C25.9683 15.0745 26.4199 14.5445 26.9049 14.0551C27.0124 13.9462 27.1082 13.8257 27.281 13.6282H26.706C18.8789 13.6282 11.0519 13.6282 3.22478 13.6282C2.11243 13.6282 1.73633 14.0115 1.73633 15.1413C1.73633 21.6106 1.73633 28.0799 1.73633 34.5493C1.73633 35.7008 2.10808 36.074 3.26689 36.0755L3.26834 36.074ZM6.20459 17.0698C8.34215 17.0625 10.4812 17.0669 12.6187 17.0669C14.72 17.0669 16.8227 17.0712 18.9239 17.064C19.3857 17.0625 19.7531 17.1874 19.8911 17.671C20.061 18.2663 19.7052 18.7644 19.0837 18.8196C18.9573 18.8312 18.8296 18.824 18.7032 18.824C14.627 18.824 10.5494 18.824 6.47323 18.824C6.3832 18.824 6.29171 18.8269 6.20168 18.824C5.60194 18.7978 5.24326 18.4653 5.24472 17.9367C5.24472 17.4067 5.59614 17.0727 6.20604 17.0698H6.20459ZM18.9719 23.4055C16.8372 23.4127 14.7025 23.4084 12.5679 23.4084C10.487 23.4084 8.40749 23.4084 6.32657 23.4084C5.61647 23.4084 5.24762 23.1136 5.24472 22.5589C5.24036 22.0071 5.62227 21.6847 6.3164 21.6832C10.4957 21.6803 14.675 21.6832 18.8528 21.6803C19.2986 21.6803 19.695 21.7631 19.8736 22.2278C20.1133 22.8537 19.695 23.4055 18.9719 23.4069V23.4055ZM6.3861 26.2909C13.9198 26.2894 21.4521 26.2894 28.9859 26.2909C29.1659 26.2909 29.3518 26.2909 29.5261 26.3345C29.9312 26.4347 30.1214 26.7236 30.1287 27.1302C30.136 27.5601 29.9486 27.8723 29.5159 27.9696C29.2894 28.0204 29.0483 28.0131 28.8131 28.0131C25.1188 28.016 21.4245 28.0146 17.7303 28.0146C14.0897 28.0146 10.4507 28.0146 6.81013 28.0146C6.66492 28.0146 6.5197 28.016 6.37594 28.0146C5.62663 28.0044 5.24181 27.7067 5.24472 27.1462C5.24762 26.5886 5.63244 26.2923 6.38756 26.2909H6.3861ZM6.17264 30.9C7.73079 30.8884 9.28749 30.8957 10.8456 30.8957C13.1284 30.8957 15.4097 30.8957 17.6925 30.8957C21.4957 30.8957 25.2989 30.8957 29.1035 30.8957C29.7875 30.8957 30.1171 31.1716 30.1302 31.7379C30.1432 32.252 29.8397 32.5932 29.3228 32.6397C29.2153 32.6499 29.1049 32.6455 28.9975 32.6455C21.4637 32.6455 13.9286 32.6513 6.39482 32.6295C6.05937 32.6295 5.6092 32.4799 5.41316 32.2374C4.95429 31.6726 5.41316 30.9044 6.17554 30.8986L6.17264 30.9Z" fill="#FAFAFA"/>
<path d="M32.2664 37.7878C29.5669 37.7907 26.8673 37.7878 24.1678 37.7878H23.5056C23.5056 39.3271 23.5056 40.7749 23.5056 42.2241C23.5056 43.2885 23.8454 43.6327 24.8968 43.6327C28.7914 43.6327 32.6861 43.6225 36.5822 43.6501C36.9438 43.653 37.3635 43.8186 37.651 44.0436C38.4773 44.6899 39.2512 45.4043 40.0456 46.0926C41.0955 47.0017 42.1468 47.9093 43.3027 48.9083C43.0835 47.5085 42.8918 46.2451 42.6841 44.9861C42.5229 44.0059 42.8235 43.6356 43.8197 43.6341C46.7182 43.6327 49.6167 43.6341 52.5152 43.6341C53.568 43.6341 53.915 43.2871 53.915 42.2357C53.915 36.0568 53.915 29.878 53.915 23.6991C53.915 22.5969 53.6014 22.2861 52.4861 22.2861C46.997 22.2861 41.5079 22.2861 36.0188 22.2861H35.3798V22.9933C35.3798 26.8894 35.3842 30.7841 35.3769 34.6802C35.374 36.6363 34.2167 37.7864 32.2664 37.7878ZM38.5107 31.3911C38.6777 31.1254 39.0218 30.8857 39.3311 30.8088C40.1705 30.5982 41.0403 30.5038 41.884 30.3078C42.125 30.2526 42.3966 30.0537 42.5244 29.8417C42.9833 29.0851 43.355 28.2733 43.8299 27.5269C43.9998 27.2612 44.3715 26.9737 44.6532 26.9722C44.935 26.9708 45.3169 27.251 45.4839 27.5168C45.9544 28.2646 46.3188 29.0793 46.7661 29.8431C46.8823 30.042 47.135 30.2352 47.3571 30.286C48.2197 30.485 49.0939 30.636 49.9681 30.7841C50.3761 30.8538 50.7697 31.0164 50.7958 31.4332C50.8176 31.7643 50.6811 32.1811 50.4676 32.4366C49.9028 33.1177 49.2449 33.7218 48.6525 34.3825C48.5203 34.5306 48.4332 34.7935 48.4535 34.991C48.5406 35.8724 48.6786 36.7495 48.7919 37.6295C48.9167 38.5966 48.346 39.0628 47.4602 38.6823C46.647 38.3338 45.8484 37.9461 45.0613 37.5409C44.7534 37.3827 44.508 37.3899 44.206 37.5409C43.3826 37.9548 42.5534 38.3599 41.7097 38.7317C41.0606 39.0178 40.4377 38.5632 40.4638 37.8924C40.5887 36.9485 40.6947 36.0307 40.8399 35.1202C40.8936 34.7819 40.8283 34.5437 40.5843 34.2997C39.9701 33.684 39.3892 33.0378 38.7866 32.4105C38.5019 32.1143 38.2856 31.7469 38.5077 31.3925L38.5107 31.3911Z" fill="#FAFAFA"/>
<path d="M36.0177 9.99934C38.1915 7.82693 40.3669 5.65307 42.5364 3.4763C42.6627 3.34996 42.8384 3.19749 42.8486 3.04792C42.8689 2.7299 42.9038 2.30296 42.7266 2.11273C42.5276 1.89782 42.1022 1.82811 41.774 1.82376C41.591 1.82085 41.3863 2.06191 41.2222 2.22455C39.0831 4.3563 36.9485 6.49241 34.8138 8.62997C34.7296 8.71419 34.6541 8.80858 34.6178 8.84924C35.0302 9.30522 35.4165 9.7307 35.8071 10.162C35.9044 10.0879 35.9668 10.0502 36.0162 10.0008L36.0177 9.99934Z" fill="#FAFAFA"/>
<path d="M24.8187 19.9582C25.5738 19.7026 26.4059 19.5167 26.9534 19.0172C28.5958 17.5171 30.1249 15.8951 31.6975 14.318C31.7934 14.2222 31.8718 14.1089 31.9662 13.9942C31.5393 13.5746 31.1385 13.1839 30.6927 12.7468C29.0968 14.3442 27.5342 15.9561 25.9136 17.507C25.2079 18.1822 25.0946 19.0637 24.8187 19.9582Z" fill="#FAFAFA"/>
<path d="M34.5523 11.4307C34.1268 10.9951 33.7188 10.5768 33.3296 10.179C32.8809 10.6364 32.4438 11.0807 32.0299 11.5019C32.4147 11.9041 32.8126 12.3209 33.1916 12.7173C33.6563 12.2773 34.1108 11.8475 34.5523 11.4307Z" fill="#FAFAFA"/>
<path d="M6.39206 32.6304C13.9258 32.6522 21.461 32.6464 28.9947 32.6464C29.1036 32.6464 29.2125 32.6507 29.32 32.6406C29.837 32.5941 30.1405 32.2528 30.1274 31.7388C30.1129 31.1739 29.7847 30.898 29.1007 30.8965C25.2976 30.8936 21.4944 30.8965 17.6898 30.8965C15.407 30.8965 13.1257 30.8965 10.8429 30.8965C9.28473 30.8965 7.72803 30.8893 6.16988 30.9009C5.4075 30.9067 4.94862 31.6749 5.4075 32.2398C5.60499 32.4823 6.0537 32.6304 6.38915 32.6318L6.39206 32.6304Z" fill="#435188"/>
<path d="M6.37512 28.013C6.52034 28.0144 6.66555 28.013 6.80931 28.013C10.4498 28.013 14.0889 28.013 17.7295 28.013C21.4237 28.013 25.118 28.013 28.8123 28.0115C29.0475 28.0115 29.2886 28.0173 29.5151 27.968C29.9493 27.8721 30.1352 27.5585 30.1279 27.1286C30.1221 26.722 29.9319 26.433 29.5253 26.3328C29.3524 26.2907 29.1666 26.2893 28.9851 26.2893C21.4513 26.2878 13.919 26.2864 6.38529 26.2893C5.63162 26.2893 5.2468 26.5855 5.24245 27.1446C5.23954 27.7051 5.62436 28.0028 6.37367 28.013H6.37512Z" fill="#435188"/>
<path d="M17.7295 28.0137C21.4237 28.0137 25.118 28.0137 28.8123 28.0122C25.118 28.0151 21.4237 28.0137 17.7295 28.0137Z" fill="#435188"/>
<path d="M6.20244 18.8225C6.29247 18.8269 6.38395 18.8225 6.47399 18.8225C10.5502 18.8225 14.6278 18.8225 18.704 18.8225C18.8303 18.8225 18.9581 18.8283 19.0844 18.8182C19.706 18.763 20.0617 18.2649 19.8918 17.6695C19.7539 17.1859 19.3865 17.0611 18.9247 17.0625C16.8234 17.0698 14.7207 17.0654 12.6195 17.0654C10.4819 17.0654 8.3429 17.0611 6.20534 17.0683C5.59689 17.0712 5.24547 17.4052 5.24402 17.9353C5.24402 18.4638 5.6027 18.7964 6.20098 18.8225H6.20244Z" fill="#435188"/>
<path d="M12.6196 17.0674C14.7208 17.0674 16.8235 17.0703 18.9248 17.0645C16.8235 17.0717 14.7208 17.0674 12.6196 17.0674Z" fill="#435188"/>
<path d="M18.8532 21.678C14.6739 21.6809 10.4947 21.678 6.31684 21.6809C5.62271 21.6809 5.2408 22.0032 5.24515 22.5565C5.24951 23.1127 5.61836 23.406 6.327 23.406C8.40793 23.4075 10.4874 23.406 12.5683 23.406C14.703 23.406 16.8376 23.4104 18.9723 23.4031C19.6955 23.4002 20.1137 22.8498 19.8741 22.224C19.6955 21.7593 19.299 21.6765 18.8532 21.6765V21.678Z" fill="#435188"/>
</svg>
