<svg width="45" height="52" viewBox="0 0 45 52" fill="none" xmlns="http://www.w3.org/2000/svg">
<path d="M15.007 1.82456L13.2737 3.64912H8.21053C2.96491 3.64912 0.866667 4.19649 0.273684 5.70176C0.136842 6.11228 0 16.2386 0 28.2351V50.0386L1.04912 50.9965C2.09825 52 2.2807 52 19.2947 52C35.7158 52 36.5368 51.9544 37.3579 51.1333C39 49.4912 39.2737 45.0667 37.7684 44.793C37.0842 44.6561 36.9474 44.9754 36.9474 47.0737C36.9474 48.4421 36.7193 49.7649 36.4 50.0842C35.6246 50.8596 2.69123 50.8596 1.91579 50.0842C1.14035 49.3088 1.14035 6.79649 1.91579 6.02105C2.23509 5.70176 3.64912 5.47369 5.10877 5.47369H7.70877L7.84561 8.52983C8.02807 12.7719 8.02807 12.7719 19.386 12.7719C30.5614 12.7719 30.5614 12.7719 30.5614 8.39298V5.47369H33.2526C34.8947 5.47369 36.1263 5.70176 36.4 6.06667C36.6737 6.38597 36.9474 8.30175 37.0386 10.2632C37.1298 13.1368 37.3123 13.9123 37.8596 13.9123C38.407 13.9123 38.5439 13.1825 38.5439 9.94386C38.5439 6.38597 38.407 5.8386 37.4947 4.92632C36.5368 3.96842 35.9895 3.87719 30.7895 3.74035L25.1333 3.5579L23.3544 1.77895C21.7123 0.182457 21.3474 0 19.1579 0C16.9228 0 16.6035 0.136845 15.007 1.82456ZM22.2597 2.69123C22.9439 3.42105 23.7649 4.33334 24.0842 4.74386C24.4947 5.24562 25.407 5.47369 26.9123 5.47369H29.193V8.21053V10.9474L19.2947 10.8561L9.35088 10.7193L9.21404 8.07368L9.07719 5.47369H11.3579C12.9088 5.47369 13.8211 5.24562 14.2316 4.74386C16.5123 1.91579 17.2877 1.36842 19.1579 1.36842C20.6632 1.36842 21.3018 1.64211 22.2597 2.69123Z" fill="#FAFAFA"/>
<path d="M17.6527 4.15087C15.4176 5.88421 16.4668 9.1228 19.2948 9.1228C20.8913 9.1228 21.8948 7.98245 21.8948 6.2035C21.8948 3.69473 19.6141 2.6 17.6527 4.15087ZM20.4352 6.29473C20.6176 7.57193 19.3405 8.11929 18.3826 7.1614C17.4247 6.2035 17.972 4.92631 19.2492 5.10877C19.9334 5.2 20.344 5.61052 20.4352 6.29473Z" fill="#FAFAFA"/>
<path d="M23.9474 17.2421C20.7088 18.4281 17.7439 19.5684 17.4702 19.7509C16.7404 20.207 16.6947 25.0421 17.379 29.193C18.3369 35.3509 22.2597 41.0983 28.0526 44.7474L30.7439 46.4807L32.9333 45.2947C37.0386 43.0597 40.414 39.5474 42.5123 35.2597L44.4737 31.3369V25.407V19.5228L38.0877 17.2877C34.5754 16.0562 31.2912 15.0983 30.7895 15.0983C30.2877 15.0983 27.2316 16.0562 23.9474 17.2421ZM37.0842 18.5649L43.3333 20.7088V24.4035C43.3333 32.6597 40.3228 38.4526 33.5263 43.1053C31.3825 44.6105 31.0176 44.7474 30.0597 44.2C27.6421 42.9228 24.0842 39.9123 22.579 37.8597C19.6597 33.8912 19.0211 31.8386 18.793 25.9544L18.6105 20.6632L24.4491 18.6105C27.6877 17.4702 30.4246 16.5123 30.5614 16.4667C30.6983 16.4211 33.6176 17.379 37.0842 18.5649Z" fill="#FAFAFA"/>
<path d="M28.2807 24.1753C26.9123 25.5438 26.6386 27.2771 27.5509 28.9648C28.2351 30.242 28.2807 30.6982 27.779 32.2946C26.9123 35.2139 27.2772 35.5789 30.972 35.5789C34.5299 35.5789 34.7123 35.3964 34.0737 32.4771C33.8 31.0631 33.8456 30.1052 34.2562 29.056C35.0772 27.1403 34.8492 25.5894 33.6632 24.3122C32.386 22.9438 29.6035 22.8525 28.2807 24.1753ZM32.5685 25.3613C33.4807 26.2736 33.5264 28.4631 32.6141 29.1929C32.2035 29.5122 32.0211 30.1052 32.1123 30.5157C32.2035 30.9262 32.4316 31.9297 32.6141 32.7052L32.9334 34.2104H30.8807H28.8737L29.3299 32.1578C29.7404 30.4245 29.6492 29.8771 28.9649 28.5543C28.1439 27.0946 28.1439 26.9122 28.8737 25.8175C29.786 24.449 31.4737 24.2666 32.5685 25.3613Z" fill="#FAFAFA"/>
<path d="M5.01758 20.2983C5.01758 20.8913 5.7474 20.9825 9.67021 20.8913C12.8632 20.8 14.3685 20.572 14.5053 20.1614C14.6421 19.7509 13.5018 19.6141 9.85267 19.6141C5.79302 19.6141 5.01758 19.7509 5.01758 20.2983Z" fill="#FAFAFA"/>
<path d="M5.24568 24.1754C4.60708 25.2245 5.74744 25.5438 9.80709 25.5438C13.958 25.5438 15.5088 25.0421 14.0948 24.1298C13.2281 23.5824 5.61059 23.628 5.24568 24.1754Z" fill="#FAFAFA"/>
<path d="M5.24562 28.7825C4.60702 29.786 5.88421 30.1509 10.0807 30.0141C13.5474 29.9229 14.3684 29.7404 14.3684 29.193C14.3684 28.6457 13.5018 28.4632 9.94386 28.372C7.07018 28.2808 5.42807 28.4176 5.24562 28.7825Z" fill="#FAFAFA"/>
<path d="M5.20026 33.3438C4.65289 34.2561 6.06693 34.6666 9.80728 34.6666C13.5476 34.6666 14.9617 34.2561 14.4143 33.3438C14.1862 33.0245 12.4529 32.8421 9.80728 32.8421C7.16167 32.8421 5.42833 33.0245 5.20026 33.3438Z" fill="#FAFAFA"/>
<path d="M5.01758 38.0878C5.01758 38.6807 5.97547 38.772 11.4492 38.772C16.3755 38.772 17.8351 38.6351 17.6983 38.179C17.5614 37.7685 15.7369 37.586 11.2667 37.4948C5.92986 37.4036 5.01758 37.4948 5.01758 38.0878Z" fill="#FAFAFA"/>
<path d="M5.01758 42.6491C5.01758 43.2421 5.97547 43.3333 12.3158 43.2421C22.1685 43.0596 22.2597 42.2386 12.4527 42.0561C5.97547 41.9649 5.01758 42.0561 5.01758 42.6491Z" fill="#FAFAFA"/>
</svg>
