<svg width="44" height="45" viewBox="0 0 44 60" fill="none" xmlns="http://www.w3.org/2000/svg">
<path d="M43.7295 57.4311C42.3591 54.6441 40.993 51.8541 39.6068 49.0744C39.2925 48.4438 39.0371 47.8294 39.0873 47.094C39.1146 46.679 39.0385 46.2393 38.9237 45.8344C38.2693 43.541 36.4641 42.1927 34.0131 42.1752C31.4545 42.1577 28.8945 42.1708 26.3359 42.1708C26.1321 42.1708 25.9269 42.1708 25.67 42.1708V41.3597C25.67 28.9782 25.67 16.5967 25.6672 4.21515C25.6672 3.86713 25.6643 3.51475 25.6112 3.17255C25.2166 0.573351 22.4527 -0.802698 20.1998 0.496175C18.8351 1.28249 18.3271 2.54787 18.3285 4.10011C18.3372 16.521 18.3329 28.9404 18.3329 41.3612V42.1723C18.0746 42.1723 17.8708 42.1723 17.667 42.1723C15.1658 42.1723 12.6632 42.1621 10.1619 42.181C9.61234 42.1854 9.04265 42.213 8.51887 42.3616C6.26879 43.0023 4.96724 44.8239 4.87827 47.2702C4.85961 47.7886 4.72759 48.3405 4.50373 48.8064C3.11608 51.6925 1.68539 54.5582 0.271908 57.4311C-0.224603 58.4388 -0.0581423 58.9703 0.91192 59.5294H43.0881C44.0581 58.9703 44.2246 58.4402 43.7281 57.4311H43.7295ZM20.7695 41.4922C20.7695 29.0554 20.7695 16.62 20.7695 4.18311C20.7695 3.16673 21.0751 2.66582 21.7654 2.5304C22.4154 2.40226 23.0024 2.7692 23.1502 3.41864C23.2047 3.66036 23.2262 3.91664 23.2262 4.16564C23.2291 16.6214 23.2291 29.0772 23.2276 41.533C23.2276 41.7209 23.2104 41.9102 23.1989 42.1417H20.7681V41.4937L20.7695 41.4922ZM9.53772 44.6637C9.70849 44.6448 9.88069 44.6462 10.0529 44.6462C18.0186 44.6462 25.9829 44.6448 33.9486 44.6462C35.5414 44.6462 36.5646 45.5592 36.6406 47.0722H7.35795C7.42683 45.7544 8.30936 44.7948 9.53772 44.6637ZM39.1016 57.0219C39.1016 56.6084 39.1189 56.2254 39.0988 55.8454C39.0586 55.0838 38.552 54.5698 37.8762 54.5785C37.229 54.5873 36.7296 55.0911 36.6794 55.8206C36.6535 56.2051 36.6751 56.5909 36.6751 57.0161H34.2341C34.2341 56.2356 34.2341 55.4682 34.2341 54.7009C34.2341 54.3325 34.2413 53.9641 34.2327 53.5971C34.2112 52.6623 33.7304 52.0856 32.99 52.0973C32.2438 52.1075 31.7846 52.6754 31.7745 53.6248C31.7645 54.5553 31.7717 55.4843 31.7717 56.4147C31.7717 56.604 31.7717 56.7933 31.7717 57.0205H26.8969C26.8969 56.6681 26.9099 56.3274 26.8941 55.9881C26.8553 55.1275 26.3847 54.5917 25.6758 54.5844C24.9712 54.5771 24.4818 55.1173 24.4388 55.9677C24.4216 56.3099 24.4359 56.6521 24.4359 57.0263H14.6635C14.6635 56.4366 14.6635 55.8468 14.6635 55.2571C14.6635 54.6761 14.6722 54.0951 14.6607 53.5141C14.6449 52.6652 14.1627 52.1075 13.4538 52.0973C12.7507 52.0871 12.2413 52.6448 12.2298 53.4864C12.214 54.6455 12.2255 55.8046 12.2255 57.0321H9.76158C9.76158 56.6579 9.77163 56.2982 9.76015 55.94C9.73145 55.1188 9.26651 54.5975 8.56622 54.5844C7.85159 54.5698 7.35365 55.1188 7.32925 55.9619C7.31921 56.3055 7.32782 56.6492 7.32782 57.0263H3.25241C3.32703 56.8385 3.38299 56.6696 3.46048 56.5108C4.51665 54.3645 5.58429 52.224 6.62467 50.0704C6.794 49.7209 6.99059 49.6088 7.368 49.6088C17.1246 49.6189 26.8826 49.6175 36.6392 49.6146C36.9405 49.6146 37.1658 49.6393 37.328 49.9742C38.4114 52.2152 39.5178 54.4431 40.6156 56.6768C40.6629 56.7744 40.6902 56.8822 40.7404 57.0249H39.1002L39.1016 57.0219Z" fill="#FAFAFA"/>
</svg>
