<svg width="51" height="52" viewBox="0 0 51 52" fill="none" xmlns="http://www.w3.org/2000/svg">
<path d="M18.4591 0.826557C9.37772 3.21668 2.59402 10.2784 0.569852 19.4587C-2.49375 33.1475 7.13472 46.7821 21.3039 48.792C25.2428 49.3352 26.7746 49.1179 26.4464 48.0858C26.337 47.7599 24.4769 47.3253 22.3433 47.1624C18.2403 46.7821 13.7543 45.0438 10.5266 42.5994C8.83065 41.35 8.66652 40.9154 8.94006 39.4488C9.65126 35.592 11.8943 32.55 15.3408 30.8117C16.9273 29.9969 19.0062 29.6167 23.1639 29.3994C26.9387 29.2364 28.7441 28.9105 28.6347 28.5303C28.4705 28.15 26.4464 27.9327 22.7263 27.9871C18.1309 28.0414 16.5991 28.2587 14.8484 29.1821C11.3472 30.9747 7.46297 35.7006 7.46297 38.2537C7.46297 39.6661 6.69706 39.1772 5.16526 36.6784C-3.47848 22.5006 4.78231 4.79199 21.3039 1.9673C30.2212 0.446312 40.0138 5.22656 44.7186 13.3204C46.5239 16.5253 48.1105 22.8809 47.8369 26.1945C47.6181 29.0191 48.8216 29.5624 49.3687 26.8463C49.5875 25.7056 49.4234 23.0982 49.0952 20.9796C46.6881 6.47594 32.4095 -2.92159 18.4591 0.826557Z" fill="#FAFAFA"/>
<path d="M20.319 7.23641C17.0912 8.70308 14.5747 12.7771 14.5747 16.3623C14.6294 19.0241 16.38 22.4463 18.6778 24.1846C21.3584 26.1944 26.4462 26.629 29.3457 25.0537C33.8864 22.6092 35.9105 16.9055 33.8317 12.3426C32.2451 8.70307 29.4551 6.85616 25.2973 6.63888C23.2732 6.53024 21.3037 6.74752 20.319 7.23641ZM28.7986 9.13764C30.8775 10.2241 33.1752 13.9179 33.1752 16.2537C33.1752 18.5895 30.8775 22.2833 28.7986 23.3697C21.8508 27.1179 14.1918 20.545 17.0365 13.2117C18.7872 8.59443 24.2579 6.6932 28.7986 9.13764Z" fill="#FAFAFA"/>
<path d="M34.0507 27.9327C31.37 28.8562 28.4159 31.6266 27.1029 34.4513C25.8993 37.0587 25.7352 41.6216 26.8293 44.1747C28.9082 49.1179 34.4337 52.4858 39.6308 51.9426C45.3751 51.3451 49.5876 47.5426 50.7364 41.7303C52.7059 32.4414 43.2962 24.6735 34.0507 27.9327ZM44.281 30.4315C46.6881 32.0068 48.8217 35.2117 49.314 37.9821C50.4629 44.6093 43.7339 51.3451 37.1143 50.2587C28.58 48.9006 24.8052 38.9599 30.3306 32.4414C33.5583 28.6389 40.0138 27.7155 44.281 30.4315Z" fill="#FAFAFA"/>
<path d="M37.2238 32.8217C36.7315 34.0711 37.3879 35.2661 38.5915 35.2661C39.8498 35.2661 40.5063 33.7451 39.6857 32.7673C38.865 31.7896 37.6068 31.7896 37.2238 32.8217Z" fill="#FAFAFA"/>
<path d="M34.6526 37.2217C33.8319 38.0908 34.379 38.5254 36.1844 38.5254H38.0991V41.513C38.0991 44.4464 38.0991 44.5007 36.4579 44.5007C35.3638 44.5007 34.8167 44.7723 34.8167 45.3155C34.8167 46.0217 35.4732 46.1303 38.5368 46.0217C40.6156 45.913 42.1474 45.6414 42.0927 45.3155C42.038 44.9896 41.491 44.718 40.8892 44.6093C39.9592 44.4464 39.7403 43.9575 39.6309 40.8069L39.4668 37.1674L37.2785 37.0044C36.0202 36.8958 34.8714 37.0044 34.6526 37.2217Z" fill="#FAFAFA"/>
</svg>
