<svg width="68" height="61" viewBox="0 0 68 61" fill="none" xmlns="http://www.w3.org/2000/svg">
<g clip-path="url(#clip0_169_953)">
<path d="M66.9213 23.714C56.4453 16.0236 45.9569 8.34927 35.4685 0.673117C34.2414 -0.224118 33.7485 -0.224118 32.5019 0.687302C22.0507 8.33685 11.6013 15.9899 1.1501 23.6413C-0.0308482 24.5066 -0.309239 25.457 0.341522 26.3809C1.00292 27.3189 2.04556 27.3579 3.24247 26.4819C13.3195 19.1054 23.3966 11.729 33.4665 4.34362C33.8336 4.0741 34.0765 4.01026 34.4861 4.31171C44.5685 11.7166 54.665 19.1054 64.7563 26.4979C66.1677 27.5317 67.1536 27.3189 67.9675 25.7922V24.863C67.6218 24.4764 67.3292 24.0136 66.9196 23.7122L66.9213 23.714Z" fill="#FAFAFA"/>
<path d="M60.4802 29.4988C60.4802 29.2116 60.4731 28.9208 60.4253 28.6406C60.2834 27.8072 59.6025 27.2309 58.7602 27.2096C57.652 27.183 56.948 27.9739 56.948 29.263C56.9463 38.2424 56.948 47.2236 56.948 56.2031V57.0099C56.769 57.0347 56.6413 57.0702 56.5136 57.0702C52.1338 57.0737 47.754 57.0649 43.376 57.0826C42.86 57.0844 42.8139 56.8468 42.8157 56.4371C42.8263 54.0256 42.8263 51.6158 42.8192 49.2043C42.8122 46.4842 42.9115 43.7571 42.7536 41.0458C42.4345 35.5631 37.0564 31.7738 31.7545 33.1853C27.7861 34.2421 25.1795 37.6697 25.1636 41.9183C25.1441 46.7183 25.1476 51.5183 25.1724 56.3166C25.176 56.9336 24.9969 57.0897 24.3922 57.0861C20.1898 57.0613 15.9873 57.0719 11.7848 57.0719H11.0312V56.1907C11.0312 47.3212 11.0312 38.4517 11.0312 29.5822C11.0312 29.3392 11.0401 29.0945 11.0223 28.8534C10.9514 27.926 10.2475 27.2451 9.33782 27.2132C8.40866 27.1813 7.67279 27.7895 7.54157 28.7204C7.50079 29.0041 7.50079 29.2931 7.50079 29.5804C7.49901 39.1131 7.50079 48.6457 7.50079 58.1784C7.50079 58.4001 7.49547 58.6217 7.5132 58.8416C7.60186 59.9357 8.27035 60.5793 9.37683 60.5811C15.1947 60.59 21.0107 60.59 26.8286 60.5811C27.9794 60.5811 28.6656 59.863 28.6887 58.7068C28.6922 58.5082 28.6887 58.3079 28.6887 58.1093C28.6887 52.6691 28.6745 47.2272 28.6958 41.787C28.7064 38.6822 31.1995 36.2955 34.2299 36.4285C37.0954 36.5526 39.2835 38.8843 39.2906 41.8668C39.3048 47.44 39.2924 53.0149 39.2959 58.588C39.2959 59.8576 39.9609 60.5793 41.1684 60.5811C46.9862 60.59 52.8023 60.59 58.6202 60.5811C59.716 60.5811 60.3845 59.925 60.4732 58.8292C60.4873 58.6536 60.4838 58.4763 60.4838 58.299C60.4838 48.6989 60.4838 39.1007 60.4838 29.5006L60.4802 29.4988Z" fill="#FAFAFA"/>
</g>
<defs>
<clipPath id="clip0_169_953">
<rect width="67.97" height="60.5847" fill="white"/>
</clipPath>
</defs>
</svg>
