<svg width="34" height="64" viewBox="0 0 34 64" fill="none" xmlns="http://www.w3.org/2000/svg">
<path d="M33.291 61.2716C31.8067 55.9364 28.8148 50.2825 23.7231 47.641C21.2813 46.4398 18.2224 45.8675 15.5929 46.7238C9.95984 48.6944 5.48075 56.2523 3.09132 61.4454L2.17745 60.8383C2.988 59.9414 3.7025 58.9503 4.38498 57.9505C9.16239 50.7476 12.1106 42.487 14.113 34.122C16.7803 22.9895 17.4643 11.4252 17.3741 0L18.5018 4.55994C21.1328 15.1476 24.1611 27.5842 26.7033 38.1864C23.2429 34.4336 17.6826 32.263 12.6781 33.9655C11.1371 34.4567 9.6979 35.2493 8.38677 36.2071C10.9246 34.1655 14.1624 32.86 17.4701 33.0962C19.9498 33.2468 22.3406 34.1626 24.4114 35.5102C25.1113 35.9709 25.7662 36.4534 26.3832 37.0316L25.887 37.3112C23.1788 27.151 19.9963 15.0259 17.3711 4.84539L18.5222 4.70339C18.6299 23.0982 15.2175 46.0051 3.62974 60.876C3.41874 61.1296 3.21937 61.3643 2.98509 61.6106L0.710617 64.0014C1.46586 62.3438 2.50924 59.9414 3.38672 58.3982C6.03518 53.6847 9.97439 47.7729 15.3557 45.9892C17.2678 45.3777 19.3371 45.5588 21.2522 46.0457C28.0508 47.9105 31.8081 54.8685 33.2924 61.273L33.291 61.2716Z" fill="#050505"/>
</svg>
