<svg width="51" height="52" viewBox="0 0 51 52" fill="none" xmlns="http://www.w3.org/2000/svg">
<g clip-path="url(#clip0_165_850)">
<path d="M25.5163 0.00153293C31.9773 0.00153293 38.4398 -0.00279884 44.9008 0.00442078C47.8241 0.00730862 50.1599 1.85553 50.8211 4.69284C50.9389 5.19677 50.9858 5.72813 50.9872 6.2465C50.9999 10.7414 51 15.2364 50.9929 19.7299C50.9872 23.3786 48.4087 25.9979 44.8185 25.9994C33.8604 26.0037 22.9023 26.0023 11.9443 25.9921C11.5611 25.9921 11.2929 26.099 11.019 26.3791C7.91127 29.5673 4.79357 32.7439 1.66878 35.9133C1.46585 36.1184 1.19339 36.3075 0.922344 36.3754C0.502299 36.4808 0.0907678 36.1213 0.0155571 35.665C-0.00714808 35.5235 0.00136635 35.3777 0.00136635 35.2333C-5.27193e-05 25.5575 -0.00289086 15.8818 0.00278542 6.20751C0.00562357 3.23736 1.83339 0.837564 4.60909 0.176248C5.1526 0.0462945 5.73016 0.0101965 6.29069 0.00875255C12.6992 -0.00279884 19.1077 0.00153293 25.5163 0.00153293ZM1.70141 33.411C1.92563 33.1959 2.0647 33.0674 2.19809 32.9331C4.8404 30.2402 7.48839 27.5545 10.1151 24.8457C10.5209 24.4269 10.941 24.2566 11.5171 24.2566C22.5816 24.271 33.6461 24.2667 44.7106 24.2667C47.5147 24.2667 49.2942 22.4589 49.2956 19.6071C49.2971 15.2032 49.2971 10.7977 49.2956 6.39378C49.2956 3.54203 47.5161 1.73568 44.712 1.73568C31.912 1.73568 19.1134 1.73568 6.3134 1.73568C3.47241 1.73568 1.70141 3.53337 1.70141 6.41833C1.70141 15.1916 1.70141 23.9634 1.70141 32.7367V33.411Z" fill="#FAFAFA"/>
<path d="M28.871 51.997C23.5424 51.997 18.2124 52.0028 12.8838 51.9941C9.97182 51.9898 7.62183 50.1228 6.96764 47.2941C6.85128 46.7902 6.81013 46.2588 6.80729 45.7405C6.7931 42.4007 6.79452 39.0609 6.80161 35.7211C6.80871 32.1026 9.38716 29.4689 12.9363 29.4675C23.5765 29.4617 34.2181 29.4617 44.8583 29.4675C48.4102 29.4689 50.9844 32.0983 50.9929 35.7211C51.0014 39.0609 51.0014 42.4007 50.9929 45.7405C50.9844 49.3604 48.4074 51.9912 44.8583 51.9956C39.5296 52.0028 34.1996 51.997 28.871 51.997ZM28.8852 50.2643C34.1968 50.2643 39.5069 50.2672 44.8185 50.2643C47.4764 50.2628 49.29 48.4175 49.2943 45.7116C49.2985 42.3906 49.2999 39.0696 49.2943 35.7471C49.29 33.0412 47.4764 31.2002 44.8157 31.2002C34.211 31.1973 23.6077 31.1987 13.003 31.2002C10.3096 31.2002 8.50308 33.0383 8.50166 35.7789C8.49882 39.0638 8.50024 42.3487 8.50166 45.6351C8.50308 48.4449 10.2939 50.2643 13.0597 50.2657C18.3358 50.2657 23.6105 50.2657 28.8866 50.2657L28.8852 50.2643Z" fill="#FAFAFA"/>
<path d="M12.7617 20.7968C8.53004 20.7997 5.10582 17.3083 5.10157 12.9851C5.09731 8.68659 8.54565 5.19662 12.7901 5.2024C16.9522 5.20818 20.3935 8.71691 20.3977 12.962C20.402 17.288 16.9849 20.7953 12.7603 20.7982L12.7617 20.7968ZM12.0692 12.9563C10.5636 12.1693 9.96614 11.1268 10.2741 9.82151C10.5593 8.61728 11.5782 7.79569 12.7731 7.80579C13.9466 7.81446 14.9371 8.63027 15.2195 9.82007C15.5317 11.1355 14.9386 12.1794 13.3975 12.9779C15.5786 13.0501 17.0118 14.1417 17.7327 16.2369C19.4228 13.7793 18.8197 10.1681 16.4541 8.25341C13.9963 6.26368 10.443 6.56113 8.34273 8.91906C6.22973 11.29 6.5405 14.6789 7.77368 16.1676C8.53004 14.1432 9.84126 13.0992 12.0678 12.9592L12.0692 12.9563ZM12.7745 14.7337C12.5446 14.7337 12.3147 14.7337 12.0848 14.7337C10.3848 14.741 9.30344 15.8701 9.36446 17.61C9.37155 17.7992 9.50778 18.0634 9.66246 18.1558C11.7173 19.3846 13.7905 19.3759 15.8482 18.1587C15.9944 18.0721 16.1292 17.8338 16.1391 17.6591C16.2328 15.9062 15.133 14.7395 13.4131 14.7337C13.2002 14.7337 12.9888 14.7337 12.7759 14.7337H12.7745ZM12.7461 11.2625C13.2016 11.2625 13.5862 10.8799 13.5961 10.415C13.6061 9.9298 13.203 9.52117 12.7262 9.53561C12.2707 9.54861 11.8975 9.94569 11.9032 10.4092C11.9088 10.8756 12.2892 11.2611 12.7461 11.2625Z" fill="#FAFAFA"/>
<path d="M34.8197 10.4006C31.5445 10.4006 28.2693 10.4006 24.994 10.3992C24.8011 10.3992 24.5967 10.4107 24.4165 10.3544C24.0191 10.2317 23.7921 9.93567 23.8091 9.50682C23.8262 9.05343 24.0858 8.77476 24.5187 8.68523C24.6889 8.65058 24.872 8.66791 25.048 8.66791C31.5814 8.66791 38.1148 8.66791 44.6482 8.66791C44.7362 8.66791 44.8256 8.66646 44.9135 8.66791C45.528 8.68379 45.9097 9.03322 45.8927 9.56025C45.8771 10.0656 45.5067 10.3977 44.9135 10.3977C41.5489 10.4021 38.1857 10.4006 34.8211 10.4006H34.8197Z" fill="#FAFAFA"/>
<path d="M34.7942 13.8675C31.5544 13.8675 28.3147 13.8675 25.0735 13.8675C24.8961 13.8675 24.7159 13.8848 24.5442 13.853C24.0873 13.7678 23.8105 13.4805 23.8105 13.0011C23.8105 12.5217 24.0858 12.2344 24.5442 12.1492C24.6989 12.1203 24.8621 12.1362 25.021 12.1362C31.5714 12.1362 38.1233 12.1362 44.6737 12.1362C44.8327 12.1362 44.9959 12.1203 45.1505 12.1492C45.6089 12.2358 45.8842 12.5232 45.8856 13.0011C45.8856 13.4805 45.6089 13.7678 45.152 13.8545C44.9803 13.8862 44.7986 13.8689 44.6226 13.8689C41.3474 13.8689 38.0722 13.8689 34.797 13.8689L34.7942 13.8675Z" fill="#FAFAFA"/>
<path d="M34.8893 15.6C38.1475 15.6 41.4043 15.6 44.6625 15.6C44.8214 15.6 44.9846 15.5841 45.1393 15.6116C45.5976 15.6924 45.8772 15.9769 45.8843 16.4548C45.89 16.9342 45.6161 17.2244 45.1606 17.3169C45.0073 17.3486 44.8427 17.3327 44.6837 17.3327C38.1333 17.3327 31.5815 17.3327 25.031 17.3327C24.9076 17.3327 24.7827 17.3385 24.6592 17.3299C24.1512 17.2923 23.8092 16.9487 23.8035 16.4765C23.7979 16.0029 24.137 15.6462 24.6394 15.6044C24.7799 15.5928 24.9232 15.6 25.0637 15.6C28.3389 15.6 31.6141 15.6 34.8893 15.6Z" fill="#FAFAFA"/>
<path d="M47.5943 40.7287C47.5844 45.0504 44.1573 48.5331 39.9214 48.5273C35.7011 48.5215 32.2882 45.0085 32.2981 40.6782C32.3081 36.3868 35.7734 32.9127 40.0235 32.9329C44.18 32.9532 47.6056 36.4792 47.5943 40.7287ZM40.5571 40.7085C42.7893 40.785 44.2084 41.8766 44.9264 43.9515C46.574 41.7264 46.0645 38.1137 43.8706 36.163C41.5065 34.0592 37.9432 34.1819 35.7365 36.4402C33.4518 38.7779 33.6675 42.2347 34.9802 43.9284C35.6897 41.8492 37.1371 40.785 39.3736 40.6984C37.8864 40.0645 37.1939 38.9324 37.4394 37.6719C37.6792 36.4388 38.6981 35.5537 39.9029 35.5349C41.1219 35.5161 42.1479 36.3493 42.4289 37.5853C42.724 38.8848 42.0883 39.9807 40.5585 40.7085H40.5571ZM39.9497 42.4643C39.7369 42.4643 39.5254 42.4643 39.3126 42.4643C37.5742 42.4686 36.4872 43.6007 36.5582 45.3608C36.5653 45.537 36.6873 45.7723 36.8292 45.8705C38.586 47.0877 41.2936 47.0921 43.0604 45.8792C43.2037 45.781 43.3271 45.5456 43.3342 45.368C43.4109 43.6093 42.3196 42.4686 40.5869 42.4628C40.3741 42.4628 40.1626 42.4628 39.9497 42.4628V42.4643ZM39.9412 38.9931C40.3968 38.9931 40.7813 38.6105 40.7913 38.1455C40.8012 37.6604 40.3982 37.2517 39.9214 37.2662C39.4658 37.2792 39.0926 37.6762 39.0983 38.1397C39.104 38.6061 39.4843 38.9916 39.9412 38.9931Z" fill="#FAFAFA"/>
<path d="M20.3992 38.1327C17.974 38.1327 15.5474 38.1327 13.1222 38.1327C12.9632 38.1327 12.8 38.1486 12.6454 38.1197C12.1884 38.0316 11.9117 37.7471 11.9103 37.2678C11.9103 36.7884 12.1856 36.4996 12.6439 36.4159C12.8156 36.3841 12.9973 36.4014 13.1733 36.4014C17.9896 36.4014 22.8045 36.4014 27.6208 36.4014C27.7982 36.4014 27.9784 36.3841 28.1515 36.4144C28.6099 36.4982 28.8866 36.7869 28.8866 37.2663C28.8866 37.7457 28.6099 38.0316 28.153 38.1197C27.9983 38.15 27.8351 38.1327 27.6762 38.1327C25.251 38.1327 22.8244 38.1327 20.3992 38.1327Z" fill="#FAFAFA"/>
<path d="M20.3992 41.598C17.974 41.598 15.5474 41.598 13.1222 41.598C12.9633 41.598 12.8001 41.6139 12.6454 41.585C12.1885 41.4969 11.9117 41.2125 11.9117 40.7331C11.9117 40.2537 12.187 39.9649 12.6454 39.8812C12.8171 39.8494 12.9988 39.8667 13.1747 39.8667C17.991 39.8667 22.806 39.8667 27.6223 39.8667C27.7997 39.8667 27.9799 39.8494 28.153 39.8797C28.6114 39.9635 28.8867 40.2523 28.8881 40.7317C28.8881 41.211 28.6114 41.4969 28.1544 41.585C27.9998 41.6153 27.8366 41.598 27.6776 41.598C25.2524 41.598 22.8258 41.598 20.4006 41.598H20.3992Z" fill="#FAFAFA"/>
<path d="M20.4516 43.3322C22.8598 43.3322 25.268 43.3322 27.6747 43.3322C27.8336 43.3322 27.9968 43.3163 28.1515 43.3452C28.6099 43.4318 28.8852 43.7192 28.8852 44.1986C28.8852 44.678 28.607 44.9639 28.1501 45.0505C27.9954 45.0794 27.8322 45.0635 27.6733 45.0635C22.8215 45.0635 17.9711 45.0635 13.1193 45.0635C12.9603 45.0635 12.7972 45.0794 12.6425 45.049C12.1855 44.961 11.9088 44.6751 11.9088 44.1957C11.9088 43.7163 12.1855 43.4304 12.6425 43.3438C12.7972 43.3149 12.9603 43.3308 13.1193 43.3308C15.5629 43.3308 18.0051 43.3308 20.4488 43.3308L20.4516 43.3322Z" fill="#FAFAFA"/>
<path d="M12.773 14.7339C12.9859 14.7339 13.1973 14.7339 13.4102 14.7339C15.1301 14.7411 16.2299 15.9064 16.1362 17.6593C16.1263 17.834 15.9915 18.0722 15.8453 18.1589C13.7877 19.3761 11.7158 19.3848 9.65959 18.156C9.50491 18.0636 9.36868 17.7993 9.36159 17.6102C9.30057 15.8703 10.3819 14.7411 12.0819 14.7339C12.3118 14.7339 12.5417 14.7339 12.7716 14.7339H12.773Z" fill="#FAFAFA"/>
<path d="M12.7447 11.2626C12.2892 11.2626 11.9075 10.8757 11.9018 10.4093C11.8961 9.94578 12.2693 9.5487 12.7249 9.5357C13.2002 9.52271 13.6047 9.93134 13.5947 10.4151C13.5848 10.88 13.2002 11.2626 12.7447 11.2626Z" fill="#FAFAFA"/>
<path d="M39.9497 42.4644C40.1625 42.4644 40.374 42.4644 40.5868 42.4644C42.3195 42.4701 43.4108 43.6108 43.3341 45.3695C43.3271 45.5471 43.2022 45.7825 43.0603 45.8807C41.2935 47.0936 38.5859 47.0892 36.8291 45.872C36.6872 45.7738 36.5652 45.5385 36.5581 45.3623C36.4871 43.6022 37.5741 42.4701 39.3125 42.4658C39.5254 42.4658 39.7368 42.4658 39.9497 42.4658V42.4644Z" fill="#FAFAFA"/>
<path d="M39.9426 38.9946C39.4871 38.9946 39.1053 38.6076 39.0997 38.1412C39.094 37.6763 39.4672 37.2806 39.9227 37.2676C40.3981 37.2546 40.8026 37.6633 40.7926 38.147C40.7827 38.6119 40.3981 38.9946 39.9426 38.9946Z" fill="#FAFAFA"/>
</g>
<defs>
<clipPath id="clip0_165_850">
<rect width="51" height="52" fill="white"/>
</clipPath>
</defs>
</svg>
