<svg width="61" height="61" viewBox="0 0 61 61" fill="none" xmlns="http://www.w3.org/2000/svg">
<g clip-path="url(#clip0_169_966)">
<path d="M30.1089 0.0014946C37.733 0.0014946 45.3586 -0.00352891 52.9827 0.0048436C56.4321 0.00819261 59.1884 2.15156 59.9687 5.44196C60.1077 6.02636 60.1629 6.64257 60.1646 7.24372C60.1797 12.4565 60.1797 17.6692 60.1713 22.8802C60.1646 27.1117 57.122 30.1493 52.8855 30.1509C39.955 30.156 27.0245 30.1543 14.094 30.1426C13.6419 30.1426 13.3254 30.2665 13.0022 30.5913C9.33504 34.2886 5.65616 37.9725 1.9689 41.6481C1.72944 41.8858 1.40794 42.1052 1.08811 42.1839C0.592456 42.3061 0.10685 41.8892 0.018101 41.3601C-0.00869108 41.196 0.00135595 41.0268 0.00135595 40.8594C-0.000318556 29.6385 -0.00366756 18.4177 0.00303045 7.19851C0.00637946 3.75406 2.16314 0.971032 5.43847 0.20411C6.07981 0.0534042 6.76133 0.0115416 7.42276 0.00986711C14.9848 -0.00352891 22.5469 0.0014946 30.1089 0.0014946ZM2.00741 38.7462C2.27198 38.4967 2.43608 38.3476 2.59349 38.1919C5.71141 35.0689 8.83604 31.9544 11.9355 28.813C12.4145 28.3274 12.9101 28.1298 13.59 28.1298C26.6461 28.1465 39.7022 28.1415 52.7583 28.1415C56.0671 28.1415 58.1669 26.045 58.1686 22.7379C58.1703 17.6307 58.1703 12.5218 58.1686 7.41452C58.1686 4.10738 56.0688 2.01257 52.76 2.01257C37.6559 2.01257 22.5536 2.01257 7.44955 2.01257C4.09719 2.01257 2.00741 4.09733 2.00741 7.44299C2.00741 17.6173 2.00741 27.7899 2.00741 37.9642V38.7462Z" fill="#FAFAFA"/>
<path d="M34.0676 60.3003C27.7798 60.3003 21.4904 60.307 15.2026 60.2969C11.7665 60.2919 8.99356 58.1268 8.22161 54.8464C8.0843 54.262 8.03574 53.6458 8.0324 53.0446C8.01565 49.1715 8.01732 45.2984 8.0257 41.4253C8.03407 37.229 11.0766 34.1747 15.2646 34.173C27.82 34.1663 40.3771 34.1663 52.9325 34.173C57.1238 34.1747 60.1614 37.2239 60.1714 41.4253C60.1815 45.2984 60.1815 49.1715 60.1714 53.0446C60.1614 57.2426 57.1205 60.2936 52.9325 60.2986C46.6448 60.307 40.3553 60.3003 34.0676 60.3003ZM34.0843 58.2909C40.352 58.2909 46.618 58.2942 52.8857 58.2909C56.022 58.2892 58.162 56.1492 58.167 53.0112C58.1721 49.1598 58.1737 45.3084 58.167 41.4554C58.162 38.3174 56.022 36.1824 52.8823 36.1824C40.3687 36.179 27.8568 36.1807 15.3433 36.1824C12.1651 36.1824 10.0334 38.314 10.0318 41.4922C10.0284 45.3017 10.0301 49.1112 10.0318 52.9224C10.0334 56.181 12.1467 58.2909 15.4103 58.2925C21.6361 58.2925 27.8602 58.2925 34.086 58.2925L34.0843 58.2909Z" fill="#FAFAFA"/>
<path d="M15.0585 24.1179C10.0651 24.1212 6.02456 20.0723 6.01954 15.0588C6.01451 10.0738 10.0836 6.02651 15.092 6.03321C20.0033 6.03991 24.064 10.109 24.069 15.032C24.074 20.0488 20.0418 24.1162 15.0568 24.1195L15.0585 24.1179ZM14.2413 15.0253C12.4647 14.1127 11.7597 12.9037 12.1231 11.3899C12.4597 9.99341 13.662 9.04062 15.0719 9.05234C16.4567 9.06239 17.6255 10.0085 17.9587 11.3883C18.3271 12.9137 17.6272 14.1244 15.8087 15.0504C18.3824 15.1341 20.0736 16.4001 20.9243 18.8298C22.9186 15.9798 22.207 11.7918 19.4156 9.57144C16.5153 7.26397 12.3224 7.60892 9.8441 10.3434C7.35077 13.0929 7.71748 17.023 9.17263 18.7494C10.0651 16.4017 11.6124 15.1911 14.2397 15.0286L14.2413 15.0253ZM15.0736 17.0866C14.8023 17.0866 14.531 17.0866 14.2598 17.0866C12.2537 17.095 10.9777 18.4044 11.0497 20.4222C11.0581 20.6416 11.2189 20.948 11.4014 21.0552C13.8261 22.4802 16.2725 22.4701 18.7006 21.0585C18.873 20.9581 19.0321 20.6818 19.0438 20.4792C19.1543 18.4463 17.8566 17.0933 15.8271 17.0866C15.5759 17.0866 15.3264 17.0866 15.0753 17.0866H15.0736ZM15.0401 13.0611C15.5776 13.0611 16.0314 12.6174 16.0431 12.0782C16.0548 11.5155 15.5793 11.0417 15.0166 11.0584C14.4791 11.0735 14.0387 11.534 14.0454 12.0715C14.0521 12.6123 14.5009 13.0594 15.0401 13.0611Z" fill="#FAFAFA"/>
<path d="M41.0873 12.0613C37.2225 12.0613 33.3578 12.0613 29.493 12.0596C29.2653 12.0596 29.0242 12.073 28.8115 12.0077C28.3426 11.8654 28.0747 11.5221 28.0948 11.0248C28.1149 10.499 28.4213 10.1758 28.9321 10.072C29.133 10.0318 29.349 10.0519 29.5566 10.0519C37.2661 10.0519 44.9755 10.0519 52.6849 10.0519C52.7887 10.0519 52.8942 10.0502 52.998 10.0519C53.7231 10.0703 54.1735 10.4755 54.1534 11.0867C54.135 11.6728 53.698 12.058 52.998 12.058C49.0278 12.063 45.0592 12.0613 41.089 12.0613H41.0873Z" fill="#FAFAFA"/>
<path d="M41.0573 16.0811C37.2345 16.0811 33.4116 16.0811 29.587 16.0811C29.3777 16.0811 29.165 16.1012 28.9624 16.0644C28.4232 15.9656 28.0967 15.6324 28.0967 15.0764C28.0967 14.5205 28.4215 14.1873 28.9624 14.0885C29.1449 14.055 29.3375 14.0734 29.525 14.0734C37.2545 14.0734 44.9857 14.0734 52.7152 14.0734C52.9028 14.0734 53.0954 14.055 53.2779 14.0885C53.8187 14.189 54.1436 14.5222 54.1453 15.0764C54.1453 15.6324 53.8187 15.9656 53.2795 16.0661C53.0769 16.1029 52.8626 16.0828 52.655 16.0828C48.7902 16.0828 44.9254 16.0828 41.0607 16.0828L41.0573 16.0811Z" fill="#FAFAFA"/>
<path d="M41.1692 18.0912C45.0139 18.0912 48.8568 18.0912 52.7015 18.0912C52.8891 18.0912 53.0816 18.0728 53.2641 18.1046C53.805 18.1984 54.1349 18.5283 54.1433 19.0825C54.15 19.6385 53.8268 19.9751 53.2893 20.0822C53.1084 20.1191 52.9142 20.1006 52.7266 20.1006C44.9971 20.1006 37.2659 20.1006 29.5364 20.1006C29.3907 20.1006 29.2434 20.1073 29.0977 20.0973C28.4982 20.0538 28.0947 19.6552 28.088 19.1077C28.0813 18.5584 28.4815 18.1448 29.0743 18.0963C29.24 18.0829 29.4092 18.0912 29.5749 18.0912C33.4397 18.0912 37.3044 18.0912 41.1692 18.0912Z" fill="#FAFAFA"/>
<path d="M56.1608 47.2322C56.1491 52.2439 52.1052 56.2828 47.1068 56.2761C42.1268 56.2694 38.0996 52.1954 38.1114 47.1735C38.1231 42.1969 42.2122 38.1681 47.2274 38.1915C52.132 38.215 56.1742 42.3041 56.1608 47.2322ZM47.857 47.2087C50.491 47.2975 52.1655 48.5634 53.0128 50.9696C54.9569 48.3892 54.3557 44.1996 51.7669 41.9374C48.9772 39.4976 44.7725 39.64 42.1687 42.2589C39.4727 44.9699 39.7272 48.9787 41.2762 50.9429C42.1134 48.5316 43.8214 47.2975 46.4604 47.197C44.7055 46.4619 43.8884 45.1491 44.1781 43.6872C44.4611 42.2572 45.6634 41.2307 47.085 41.209C48.5234 41.1872 49.7341 42.1534 50.0656 43.5868C50.4139 45.0938 49.6638 46.3648 47.8586 47.2087H47.857ZM47.1403 49.2449C46.8891 49.2449 46.6396 49.2449 46.3884 49.2449C44.3372 49.2499 43.0545 50.5627 43.1382 52.604C43.1466 52.8082 43.2906 53.0812 43.458 53.1951C45.5311 54.6067 48.726 54.6117 50.8108 53.2051C50.9799 53.0912 51.1256 52.8183 51.134 52.6123C51.2244 50.5728 49.9367 49.2499 47.8921 49.2432C47.641 49.2432 47.3915 49.2432 47.1403 49.2432V49.2449ZM47.1302 45.2194C47.6677 45.2194 48.1215 44.7757 48.1333 44.2365C48.145 43.6738 47.6694 43.1999 47.1068 43.2167C46.5693 43.2318 46.1289 43.6923 46.1356 44.2298C46.1423 44.7706 46.591 45.2177 47.1302 45.2194Z" fill="#FAFAFA"/>
<path d="M24.0706 44.2224C21.2089 44.2224 18.3455 44.2224 15.4837 44.2224C15.2962 44.2224 15.1036 44.2408 14.9211 44.2074C14.3819 44.1052 14.0554 43.7753 14.0537 43.2194C14.0537 42.6635 14.3786 42.3286 14.9194 42.2314C15.122 42.1946 15.3364 42.2147 15.544 42.2147C21.2273 42.2147 26.9089 42.2147 32.5921 42.2147C32.8015 42.2147 33.0141 42.1946 33.2184 42.2298C33.7593 42.3269 34.0858 42.6618 34.0858 43.2177C34.0858 43.7737 33.7593 44.1052 33.2201 44.2074C33.0376 44.2425 32.845 44.2224 32.6574 44.2224C29.7957 44.2224 26.9323 44.2224 24.0706 44.2224Z" fill="#FAFAFA"/>
<path d="M24.0709 48.24C21.2091 48.24 18.3457 48.24 15.484 48.24C15.2965 48.24 15.1039 48.2584 14.9214 48.2249C14.3822 48.1228 14.0557 47.7929 14.0557 47.237C14.0557 46.681 14.3805 46.3461 14.9214 46.249C15.124 46.2122 15.3383 46.2323 15.546 46.2323C21.2292 46.2323 26.9108 46.2323 32.5941 46.2323C32.8034 46.2323 33.0161 46.2122 33.2204 46.2473C33.7612 46.3445 34.0861 46.6794 34.0878 47.2353C34.0878 47.7912 33.7612 48.1228 33.222 48.2249C33.0395 48.2601 32.8469 48.24 32.6594 48.24C29.7977 48.24 26.9343 48.24 24.0725 48.24H24.0709Z" fill="#FAFAFA"/>
<path d="M24.1332 50.2528C26.9749 50.2528 29.8165 50.2528 32.6565 50.2528C32.844 50.2528 33.0366 50.2344 33.2191 50.2679C33.76 50.3684 34.0848 50.7016 34.0848 51.2575C34.0848 51.8135 33.7566 52.145 33.2174 52.2455C33.0349 52.279 32.8423 52.2606 32.6548 52.2606C26.9297 52.2606 21.2062 52.2606 15.4811 52.2606C15.2935 52.2606 15.101 52.279 14.9185 52.2438C14.3793 52.1417 14.0527 51.8101 14.0527 51.2542C14.0527 50.6982 14.3793 50.3667 14.9185 50.2662C15.101 50.2327 15.2935 50.2511 15.4811 50.2511C18.3646 50.2511 21.2464 50.2511 24.1299 50.2511L24.1332 50.2528Z" fill="#FAFAFA"/>
<path d="M15.0723 17.0859C15.3235 17.0859 15.573 17.0859 15.8242 17.0859C17.8537 17.0943 19.1514 18.4456 19.0409 20.4785C19.0292 20.6811 18.8701 20.9574 18.6977 21.0579C16.2696 22.4695 13.8248 22.4795 11.3985 21.0545C11.216 20.9473 11.0552 20.6409 11.0468 20.4215C10.9748 18.4038 12.2508 17.0943 14.2569 17.0859C14.5281 17.0859 14.7994 17.0859 15.0707 17.0859H15.0723Z" fill="#FAFAFA"/>
<path d="M15.0387 13.0617C14.5012 13.0617 14.0507 12.6129 14.044 12.072C14.0373 11.5345 14.4777 11.074 15.0152 11.0589C15.5762 11.0439 16.0534 11.5178 16.0417 12.0787C16.03 12.6179 15.5762 13.0617 15.0387 13.0617Z" fill="#FAFAFA"/>
<path d="M47.1407 49.2461C47.3919 49.2461 47.6414 49.2461 47.8925 49.2461C49.9371 49.2528 51.2248 50.5756 51.1344 52.6152C51.126 52.8212 50.9787 53.0941 50.8112 53.208C48.7265 54.6146 45.5315 54.6095 43.4585 53.1979C43.291 53.0841 43.147 52.8111 43.1386 52.6068C43.0549 50.5656 44.3376 49.2528 46.3888 49.2478C46.64 49.2478 46.8895 49.2478 47.1407 49.2478V49.2461Z" fill="#FAFAFA"/>
<path d="M47.1324 45.2218C46.5949 45.2218 46.1445 44.773 46.1378 44.2322C46.1311 43.693 46.5715 43.2342 47.109 43.2191C47.6699 43.204 48.1472 43.6779 48.1355 44.2389C48.1237 44.7781 47.6699 45.2218 47.1324 45.2218Z" fill="#FAFAFA"/>
</g>
<defs>
<clipPath id="clip0_169_966">
<rect width="60.18" height="60.3039" fill="white"/>
</clipPath>
</defs>
</svg>
