<svg width="51" height="52" viewBox="0 0 51 52" fill="none" xmlns="http://www.w3.org/2000/svg">
<path d="M33.4913 0.482674C27.0393 2.45274 23.1977 7.52567 23.1484 14.0762C23.1484 19.9864 26.0543 24.4683 31.472 26.9801C33.7376 28.0636 34.5748 28.2114 37.8747 28.0144C41.9133 27.7681 43.7849 27.0294 46.543 24.5668C49.5966 21.9072 50.2369 20.0356 50.2369 13.9284C50.2369 8.80622 50.1876 8.51071 48.7593 6.34363C45.5087 1.46771 38.8105 -1.14263 33.4913 0.482674ZM42.1104 3.43778C46.8385 5.50635 49.8429 11.3673 48.7593 16.4895C46.8878 25.5026 36.1509 29.0979 29.1571 22.9907C23.1484 17.7208 24.232 7.47642 31.1765 3.88104C35.1659 1.86172 38.1702 1.71397 42.1104 3.43778Z" fill="#FAFAFA"/>
<path d="M33.6884 8.1659C33.2944 9.15094 33.8854 9.88972 35.0182 9.88972C35.9047 9.88972 35.954 10.2837 35.954 15.0611C35.954 19.3953 36.1018 20.3311 36.742 20.5773C37.1853 20.7251 37.7271 20.5773 37.9733 20.1833C38.5643 19.1983 38.5151 9.54495 37.9241 8.36291C37.2838 7.23012 34.0824 7.03312 33.6884 8.1659Z" fill="#FAFAFA"/>
<path d="M15.1695 7.67345C11.4264 9.05249 7.92953 12.6971 6.40272 16.785C6.05796 17.7208 5.6147 21.7102 5.46694 25.6503C5.07293 33.4321 4.58041 35.1067 1.47755 38.6528C0.29551 39.9826 0 40.7706 0 42.5437C0 45.5973 0.640272 45.8435 7.48626 45.8435H13.101L13.9875 47.8136C15.268 50.7195 17.3859 52 20.7842 52C24.1333 52 25.9064 50.9165 27.3347 47.9614L28.3197 45.942L34.624 45.745C40.1894 45.5973 41.0267 45.4988 41.667 44.6615C42.652 43.2332 42.5042 41.2139 41.3222 40.1303C40.7312 39.6378 39.4014 37.914 38.3178 36.338C36.791 34.0724 36.2493 33.5799 35.7075 34.0231C34.6732 34.8604 35.9538 37.4215 39.0566 40.7706C39.8446 41.6079 40.3372 42.5437 40.1894 42.8392C39.7461 43.5287 1.67456 43.6272 1.23129 42.9377C1.08354 42.6914 1.87157 41.4601 2.9551 40.1796C6.74749 35.7469 7.38776 33.8754 7.83102 24.9116C8.22504 17.1298 8.76681 15.3567 11.9682 12.3031C13.0025 11.2688 14.9233 10.0868 16.3023 9.64351C18.0754 9.05249 18.7157 8.55997 18.7157 7.87045C18.7157 6.78691 17.7799 6.73766 15.1695 7.67345ZM25.3646 47.3703C23.7393 50.4732 19.7007 50.8672 16.8933 48.2076C14.7263 46.1883 15.3173 45.8435 20.932 45.8435H26.1527L25.3646 47.3703Z" fill="#FAFAFA"/>
</svg>
