<svg width="66" height="52" viewBox="0 0 66 52" fill="none" xmlns="http://www.w3.org/2000/svg">
<path d="M38.5918 0.414371C37.8619 1.57018 38.7135 2.11767 41.9376 2.54349C46.9867 3.21265 51.3666 5.2201 54.8948 8.44421C62.6814 15.5616 64.9321 24.9905 61.2822 34.9062C59.3964 39.8944 53.374 45.9776 48.2641 47.9242C43.2151 49.9317 35.7327 49.9317 30.7445 47.9851C26.6687 46.4034 21.0114 41.476 18.8822 37.6436L17.4831 35.1495H19.0039C21.3764 35.1495 20.9505 33.507 18.3956 32.4121C15.2931 31.1346 14.6848 31.2562 13.5898 33.3245C12.2515 35.9403 12.3732 37.157 14.0765 36.792C15.1715 36.4878 15.719 36.9136 17.2398 39.5294C22.4713 48.2892 33.6036 53.46 43.5192 51.635C49.3591 50.54 53.7999 48.2284 57.754 44.2135C67.2438 34.602 68.0346 20.3673 59.6397 9.78251C56.659 6.07175 52.7049 3.21265 48.325 1.69184C44.0667 0.17104 39.1393 -0.498112 38.5918 0.414371Z" fill="#FAFAFA"/>
<path d="M0.145529 4.916C0.0238647 5.34182 -0.0369674 9.11341 0.0238647 13.3108L0.206361 20.854H15.1102H30.0141V12.6417V4.42934L15.2319 4.24684C3.43046 4.12518 0.388857 4.24684 0.145529 4.916ZM27.885 12.6417V18.7249H15.1102H2.33548V12.6417V6.55846H15.1102H27.885V12.6417Z" fill="#FAFAFA"/>
<path d="M12.1906 9.78253C10.4873 11.6075 10.4873 13.9191 12.2515 15.5616C14.0764 17.3257 16.023 17.2649 17.848 15.3791C19.673 13.5541 19.7338 12.0942 18.0913 9.96503C16.5097 7.95757 13.9548 7.89674 12.1906 9.78253ZM16.6314 12.6416C16.6314 13.7366 16.2664 14.2233 15.2322 14.3449C13.7723 14.5883 12.9206 13.25 13.5289 11.6683C13.7114 11.1208 14.4414 10.8167 15.2322 10.9383C16.2664 11.06 16.6314 11.5467 16.6314 12.6416Z" fill="#FAFAFA"/>
<path d="M38.2272 17.0215V25.7205L32.3873 31.5604C27.8857 36.0619 26.6082 37.7044 26.9124 38.556C27.2774 39.4685 28.5548 38.4344 34.0297 32.9595L40.6604 26.3288L40.5388 17.5081C40.3563 9.6608 40.2346 8.68748 39.3221 8.50499C38.288 8.32249 38.2272 9.05248 38.2272 17.0215Z" fill="#FAFAFA"/>
</svg>
