<svg width="53" height="54" viewBox="0 0 53 54" fill="none" xmlns="http://www.w3.org/2000/svg">
<path d="M46.7301 21.9106C46.3569 21.8875 46.2295 21.7342 46.094 21.3773C45.5096 19.8373 44.8788 18.3149 44.2254 16.802C44.0926 16.4926 44.0793 16.323 44.305 16.0639C45.2971 14.9255 46.264 13.764 47.2388 12.6107C47.705 12.0598 47.6983 11.8454 47.191 11.3271C45.4193 9.51837 43.6476 7.71103 41.8746 5.90505C41.3633 5.38402 41.1601 5.37995 40.6183 5.8562C39.4748 6.863 38.3247 7.86165 37.1918 8.87929C36.9687 9.08011 36.8093 9.09775 36.5517 8.94578C35.0947 8.08824 33.5555 7.42609 31.9272 6.9919C31.6112 6.90777 31.5195 6.73816 31.5009 6.42609C31.4066 4.9064 31.3097 3.38672 31.1689 1.8711C31.141 1.57124 30.9179 1.29037 30.7838 1H22.2176C22.0848 1.28901 21.8603 1.56988 21.8324 1.86975C21.6916 3.38536 21.5934 4.90505 21.5017 6.42609C21.4805 6.77073 21.353 6.91456 21.0263 7.00411C19.4339 7.43831 17.9172 8.07467 16.4948 8.92543C16.1973 9.10317 16.026 9.07468 15.7724 8.84673C14.6554 7.83587 13.5159 6.85078 12.3844 5.8562C11.8412 5.37859 11.6393 5.38673 11.128 5.90641C9.35502 7.71375 7.58202 9.51973 5.81034 11.3284C5.29903 11.8508 5.29372 12.0557 5.7612 12.6079C6.74798 13.7735 7.72678 14.9472 8.7255 16.1032C8.92073 16.3285 8.94331 16.4886 8.79323 16.7545C7.9499 18.2389 7.30312 19.8102 6.8768 21.471C6.79446 21.7939 6.62579 21.8862 6.32166 21.9052C4.83154 22.0015 3.3401 22.1005 1.85396 22.2444C1.56045 22.2729 1.28421 22.4995 1 22.6351V31.3693C1.28421 31.5049 1.55913 31.7329 1.85396 31.7614C3.3401 31.9039 4.83154 32.0029 6.32166 32.0993C6.62579 32.1182 6.79446 32.2105 6.8768 32.5334C7.30312 34.1942 7.95122 35.7641 8.79323 37.2485C8.94331 37.5131 8.92339 37.6732 8.72683 37.8998C7.71748 39.0681 6.72673 40.2526 5.73066 41.4317C5.30567 41.9351 5.31231 42.1631 5.77714 42.638C7.57139 44.4698 9.36697 46.3015 11.1639 48.1306C11.6274 48.6028 11.8571 48.6109 12.3472 48.1794C13.504 47.1631 14.6647 46.1523 15.8109 45.1238C16.0313 44.9257 16.1854 44.8985 16.4483 45.0532C17.9039 45.9135 19.4445 46.5756 21.0728 47.0071C21.3968 47.0926 21.4792 47.269 21.4991 47.5729C21.596 49.0926 21.7129 50.6109 21.8152 52.1292C21.8616 52.8267 22.021 52.999 22.689 52.999C25.2284 53.0003 27.7677 53.0003 30.3083 52.999C30.975 52.999 31.1397 52.8226 31.1848 52.132C31.2858 50.6123 31.404 49.0953 31.4983 47.5756C31.5182 47.2649 31.6072 47.0939 31.9246 47.0098C33.5528 46.5756 35.0921 45.9121 36.5503 45.0573C36.808 44.9067 36.9673 44.9216 37.1905 45.1224C38.3353 46.1523 39.4974 47.1631 40.6541 48.1794C41.1455 48.6123 41.3726 48.6068 41.8388 48.1333C43.637 46.3042 45.4326 44.4738 47.2268 42.6407C47.6903 42.1672 47.697 41.9324 47.2733 41.4317C46.2879 40.2648 45.3091 39.0912 44.3064 37.9405C44.0806 37.6814 44.0899 37.5131 44.224 37.2024C44.8775 35.6909 45.5083 34.1685 46.094 32.6284C46.2295 32.2729 46.3543 32.1155 46.7288 32.0938C48.203 32.0043 49.6772 31.9039 51.146 31.7628C51.4395 31.7343 51.7158 31.5063 52 31.3706V22.6365C51.7158 22.4995 51.4409 22.2702 51.1474 22.2417C49.6772 22.1005 48.203 22.0001 46.7301 21.9119V21.9106ZM50.7795 30.5809C49.644 30.6718 48.5204 30.7627 47.3982 30.8496C46.8683 30.8903 46.3397 30.9378 45.8084 30.9581C45.4499 30.9717 45.2467 31.1671 45.171 31.4887C44.6875 33.5443 43.9013 35.4697 42.8202 37.2716C42.5984 37.6407 42.7299 37.9338 42.9836 38.2296C44.0408 39.4657 45.0886 40.7113 46.1099 41.9175C44.4498 43.6082 42.8096 45.2784 41.1296 46.9894C40.5997 46.5254 40.0113 46.0112 39.4256 45.4955C38.7842 44.9311 38.1374 44.3748 37.5079 43.7981C37.1772 43.4942 36.8611 43.4494 36.476 43.6909C34.7707 44.7656 32.9392 45.539 30.987 46.0044C30.5912 46.0993 30.4039 46.3314 30.3774 46.7479C30.2857 48.1835 30.1781 49.6177 30.0732 51.0519C30.056 51.2853 30.0241 51.5173 29.9975 51.7642H22.9985C22.9414 51.056 22.8816 50.3545 22.8298 49.653C22.7568 48.6747 22.6797 47.6964 22.6266 46.7167C22.6054 46.3327 22.4194 46.1143 22.0795 46.0315C20.0793 45.5444 18.2067 44.7466 16.4537 43.6543C16.123 43.448 15.8388 43.5023 15.5506 43.7588C14.4496 44.7384 13.3406 45.7072 12.2343 46.6787C12.0989 46.7981 11.9607 46.9148 11.8585 47.003C10.1904 45.3029 8.54887 43.6312 6.88344 41.9338C7.8317 40.813 8.80519 39.661 9.78133 38.5118C10.2249 37.9889 10.278 37.4344 9.9407 36.8483C9.00971 35.235 8.31778 33.5185 7.89545 31.699C7.77459 31.1807 7.52358 30.9731 7.01226 30.9405C5.42387 30.8401 3.8368 30.703 2.22583 30.5796V23.4262C3.37595 23.3366 4.51546 23.2471 5.65496 23.1575C6.15166 23.1195 6.64704 23.0653 7.14507 23.0517C7.54616 23.0408 7.76396 22.8346 7.85029 22.4669C8.32176 20.4438 9.09471 18.5483 10.1625 16.7776C10.3763 16.4221 10.3192 16.1209 10.0549 15.8115C9.10401 14.7029 8.16505 13.5849 7.2221 12.4695C7.1039 12.3298 6.98836 12.186 6.90602 12.0869C8.56082 10.399 10.1997 8.72732 11.8771 7.01768C12.3286 7.41117 12.8426 7.85758 13.3539 8.3067C14.0578 8.92543 14.7736 9.53194 15.4602 10.1697C15.8228 10.5062 16.1482 10.5482 16.5719 10.2836C18.2665 9.22665 20.0807 8.45595 22.0184 7.99598C22.4433 7.89557 22.604 7.62962 22.6306 7.1995C22.7196 5.76394 22.8298 4.32974 22.9347 2.89553C22.9507 2.67979 22.9826 2.46541 23.0078 2.2361H30.0068C30.0639 2.9471 30.1237 3.64859 30.1755 4.35145C30.2485 5.32974 30.3242 6.30804 30.3787 7.28769C30.3999 7.67033 30.5859 7.88878 30.9272 7.97155C32.9273 8.45731 34.8026 9.24836 36.553 10.3488C36.9102 10.5727 37.2037 10.4736 37.4973 10.2117C38.585 9.24293 39.6806 8.28363 40.7737 7.32162C40.9091 7.20221 41.0472 7.08552 41.1535 6.99461C42.8229 8.69612 44.4631 10.3678 46.1272 12.0652C45.1311 13.243 44.1125 14.4451 43.0952 15.6487C42.5958 16.2389 42.5838 16.3298 42.9663 16.9798C43.9518 18.6595 44.6822 20.4492 45.1231 22.3543C45.2334 22.8265 45.4738 23.0232 45.9466 23.0531C47.5522 23.1575 49.1539 23.2932 50.7808 23.4194V30.5796L50.7795 30.5809Z" fill="white" stroke="#435188" stroke-miterlimit="10"/>
<path d="M45.121 22.3555C44.6787 20.4505 43.9496 18.6621 42.9642 16.981C42.5817 16.3297 42.5936 16.2401 43.093 15.6499C44.1103 14.4464 45.129 13.2442 46.125 12.0664C44.4596 10.369 42.8194 8.69733 41.1513 6.99583C41.0451 7.08674 40.9069 7.20343 40.7715 7.32283C39.6785 8.28485 38.5828 9.24415 37.4951 10.213C37.2016 10.4748 36.9081 10.5739 36.5508 10.35C34.8004 9.25093 32.9264 8.45853 30.925 7.97277C30.5837 7.89 30.3978 7.67155 30.3765 7.28891C30.3221 6.30925 30.245 5.33095 30.1733 4.35266C30.1215 3.6498 30.0618 2.9483 30.0046 2.2373H23.0056C22.9804 2.46661 22.9485 2.681 22.9326 2.89674C22.8276 4.33095 22.7174 5.76515 22.6284 7.20071C22.6019 7.63084 22.4398 7.89678 22.0162 7.99719C20.0785 8.45581 18.2643 9.22787 16.5697 10.2849C16.146 10.5495 15.8206 10.5074 15.4581 10.1709C14.7714 9.53316 14.0569 8.92664 13.3517 8.30791C12.8404 7.85879 12.3264 7.41374 11.8749 7.01889C10.1975 8.7299 8.55863 10.4002 6.90383 12.0881C6.98617 12.1872 7.10038 12.331 7.21991 12.4708C8.16286 13.5861 9.10182 14.7042 10.0527 15.8127C10.317 16.1207 10.3741 16.4233 10.1603 16.7788C9.09252 18.5495 8.3209 20.4451 7.8481 22.4681C7.7631 22.8345 7.54397 23.0421 7.14288 23.053C6.64618 23.0665 6.14947 23.1194 5.65276 23.1588C4.51326 23.247 3.37376 23.3365 2.22363 23.4274V30.5808C3.83461 30.7057 5.42168 30.8414 7.01007 30.9418C7.52272 30.9743 7.77373 31.1819 7.89325 31.7002C8.31559 33.5198 9.00752 35.2362 9.93852 36.8495C10.2776 37.4366 10.2245 37.9911 9.77914 38.5131C8.803 39.6623 7.82951 40.8157 6.88125 41.9351C8.54668 43.6325 10.1882 45.3042 11.8563 47.0043C11.9585 46.9161 12.0953 46.7994 12.2321 46.68C13.3384 45.7072 14.4474 44.7397 15.5484 43.7601C15.8366 43.5036 16.1221 43.4493 16.4515 43.6556C18.2046 44.7465 20.0772 45.5443 22.0773 46.0328C22.4159 46.1156 22.6032 46.334 22.6244 46.718C22.6776 47.6977 22.7559 48.676 22.8276 49.6543C22.8794 50.3558 22.9392 51.0573 22.9963 51.7656H29.9953C30.0219 51.5186 30.0551 51.2866 30.0711 51.0532C30.176 49.619 30.2835 48.1848 30.3752 46.7492C30.4017 46.3327 30.5903 46.1006 30.9848 46.0057C32.9371 45.5403 34.7685 44.7669 36.4738 43.6922C36.8589 43.4493 37.175 43.4955 37.5057 43.7994C38.1352 44.3761 38.782 44.9337 39.4235 45.4968C40.0092 46.0125 40.5975 46.5267 41.1274 46.9908C42.8074 45.2797 44.4463 43.6094 46.1078 41.9188C45.0865 40.7125 44.0386 39.4669 42.9814 38.2308C42.7278 37.935 42.5963 37.642 42.8181 37.2729C43.8991 35.471 44.6854 33.5456 45.1688 31.4899C45.2445 31.167 45.4477 30.973 45.8063 30.9594C46.3362 30.939 46.8661 30.8916 47.396 30.8509C48.5196 30.764 49.6418 30.6731 50.7773 30.5822V23.422C49.1504 23.2958 47.5474 23.1601 45.9431 23.0557C45.4703 23.0245 45.2286 22.8291 45.1197 22.3569L45.121 22.3555ZM26.4865 41.2092C18.8248 41.1997 12.5827 34.84 12.5668 27.0245C12.5509 19.194 18.8075 12.8018 26.4905 12.7951C34.1735 12.7883 40.4368 19.171 40.4355 27.0041C40.4328 34.8373 34.1682 41.2187 26.4865 41.2092Z" fill="white" stroke="#435188" stroke-miterlimit="10"/>
<path d="M26.4897 12.7954C18.8067 12.8022 12.5513 19.1957 12.5659 27.0248C12.5819 34.8404 18.8226 41.2 26.4857 41.2095C34.1661 41.219 40.432 34.8377 40.4347 27.0045C40.4373 19.1713 34.174 12.79 26.4897 12.7954ZM26.5016 39.991C19.4893 39.991 13.7692 34.166 13.7612 27.0153C13.7533 19.8647 19.4601 14.0261 26.4737 14.0125C33.5087 13.999 39.246 19.8403 39.2394 27.0113C39.2327 34.1647 33.5166 39.9897 26.5016 39.9897V39.991Z" fill="white" stroke="#435188" stroke-miterlimit="10"/>
<path d="M26.4738 14.0139C19.4601 14.0275 13.7533 19.8661 13.7612 27.0167C13.7692 34.1674 19.4906 39.9924 26.5017 39.9924C33.5166 39.9924 39.2328 34.1674 39.2394 27.014C39.2461 19.843 33.5087 14.0003 26.4738 14.0153V14.0139Z" fill="white" stroke="#435188" stroke-miterlimit="10"/>
</svg>
