<svg width="53" height="52" viewBox="0 0 53 52" fill="none" xmlns="http://www.w3.org/2000/svg">
<path d="M10.3111 0.444717C9.10649 0.926542 6.74555 3.62476 6.74555 4.58841C6.74555 5.11842 5.97463 5.26297 3.37277 5.26297C0.096365 5.26297 0 5.31115 0 6.46753C0 7.62391 0.096365 7.67209 3.27641 7.67209C6.45645 7.67209 6.50464 7.72027 7.22737 9.26211C8.33557 11.6231 10.8892 13.1167 13.3465 12.8276C15.9484 12.5385 17.6348 11.4303 18.6466 9.35848L19.4657 7.67209H35.7514H52.0371V6.46753V5.26297H35.7996H19.5139L18.7912 3.67294C17.3939 0.685629 13.4429 -0.808027 10.3111 0.444717ZM15.3702 3.62476C18.1166 5.93752 16.6711 10.0812 13.1056 10.0812C8.86558 10.0812 7.61283 4.97387 11.3229 2.95021C12.8165 2.1311 13.7802 2.27565 15.3702 3.62476Z" fill="#FAFAFA"/>
<path d="M37.2932 19.7659C35.655 20.2477 33.4386 22.2232 33.005 23.6205C32.7159 24.4878 31.9932 24.536 16.3339 24.536H0V25.9815V27.4269H16.3339C31.9932 27.4269 32.7159 27.4751 33.005 28.3424C33.4868 29.8842 35.7032 31.7152 37.6305 32.2452C40.2806 32.9679 43.5088 31.5224 44.6652 29.1615L45.4843 27.4269H48.7607H52.0371V25.9815V24.536H48.7607H45.4843L44.6652 22.8014C44.087 21.645 43.2197 20.8259 41.7742 20.1996C39.5096 19.1395 39.4133 19.1395 37.2932 19.7659ZM41.6779 23.3314C44.087 25.6924 42.4006 29.8361 39.0278 29.8361C38.1123 29.8361 37.1005 29.4024 36.3778 28.6315C35.6069 27.9088 35.1732 26.8969 35.1732 25.9815C35.1732 25.066 35.6069 24.0542 36.3778 23.3314C37.1005 22.5605 38.1123 22.1269 39.0278 22.1269C39.9433 22.1269 40.9551 22.5605 41.6779 23.3314Z" fill="#FAFAFA"/>
<path d="M23.3203 39.6653C21.8267 40.3398 19.7548 42.749 19.7548 43.7608C19.7548 44.1463 16.7193 44.2908 9.87741 44.2908H0V45.4954V46.6999H9.78104H19.5139L20.2366 48.2899C21.2003 50.3136 23.8021 52 26.0185 52C28.2349 52 30.8368 50.3136 31.8004 48.2899L32.5232 46.6999H42.3042H52.0371V45.4954V44.2908H42.3042H32.5232L31.7523 42.749C30.2586 39.6653 26.404 38.268 23.3203 39.6653ZM28.8613 43.1344C30.6441 45.399 30.0177 48.049 27.464 49.1091C26.3076 49.5909 25.7294 49.5909 24.5731 49.1091C22.0194 48.049 21.393 45.399 23.1758 43.1344C24.5731 41.3517 27.464 41.3517 28.8613 43.1344Z" fill="#FAFAFA"/>
</svg>
