<svg width="51" height="52" viewBox="0 0 51 52" fill="none" xmlns="http://www.w3.org/2000/svg">
<path d="M4.14226 51.9959C4.24205 51.9986 4.34185 52 4.44032 52C18.4798 52 32.5193 52 46.5588 52C48.8728 52 50.58 50.5468 50.9486 48.2687C50.9991 47.9539 50.9978 47.6282 50.9978 47.308C51.0005 34.2619 51.0005 21.2144 50.9991 8.16825C50.9991 5.27951 49.244 3.47626 46.4178 3.46133C46.2714 3.46133 46.1237 3.46133 45.9494 3.46133C45.9334 3.33786 45.9041 3.24152 45.9095 3.1479C46.0039 1.55495 45.3373 0.488467 43.827 0H42.8304C42.3953 0.261872 41.9122 0.468114 41.5357 0.799186C40.9968 1.27408 40.7945 1.94301 40.8052 2.67164C40.8091 2.91995 40.8052 3.16825 40.8052 3.43826H11.8932C11.8932 3.13161 11.9038 2.84803 11.8919 2.56581C11.8373 1.35685 11.2013 0.500678 10.0769 0.107191C10.0024 0.0814111 9.9345 0.036635 9.86264 0.00135685H8.866C8.371 0.31886 7.81879 0.573948 7.39565 0.971506C6.90199 1.43555 6.78489 2.11126 6.79154 2.79104C6.79421 2.99186 6.79154 3.19267 6.79154 3.46404C5.93994 3.46404 5.11894 3.45183 4.29661 3.46676C2.82759 3.49389 1.6074 4.07598 0.793057 5.32972C0.429794 5.8901 0.258143 6.58073 0 7.21303V48.3474C0.0625397 48.536 0.129071 48.7218 0.184958 48.9118C0.717211 50.7056 2.30332 51.9457 4.13827 52L4.14226 51.9959ZM42.5124 2.66757C42.5243 2.10176 42.861 1.73677 43.344 1.7327C43.819 1.72863 44.1929 2.10041 44.2023 2.654C44.2209 3.76662 44.2196 4.87924 44.2023 5.99186C44.1943 6.56174 43.847 6.91316 43.3573 6.91723C42.8397 6.9213 42.523 6.56852 42.511 5.95522C42.5017 5.4152 42.5084 4.87653 42.5084 4.3365C42.5084 3.78019 42.4991 3.22388 42.5124 2.66757ZM8.50407 2.62551C8.51471 2.07734 8.91124 1.71235 9.38628 1.73406C9.85333 1.75577 10.174 2.10312 10.19 2.64586C10.2059 3.20217 10.194 3.75848 10.194 4.31479C10.194 4.88738 10.2073 5.46133 10.1886 6.03392C10.1713 6.57938 9.84667 6.90909 9.36632 6.91723C8.88995 6.92402 8.51871 6.59702 8.50673 6.06513C8.48145 4.91995 8.48278 3.77205 8.50407 2.62551ZM1.74978 7.40706C1.86155 6.26459 2.71449 5.4464 3.82557 5.24695C4.10101 5.1981 4.38576 5.19539 4.66786 5.19267C5.35979 5.18589 6.05304 5.18996 6.80219 5.18996C6.73832 6.30258 6.84211 7.3175 7.71766 8.05292C8.19669 8.4559 8.74358 8.65943 9.36765 8.654C10.2259 8.64451 10.8965 8.27137 11.4168 7.58887C11.9438 6.89688 11.8972 6.07056 11.9145 5.22795H40.8118C40.8118 5.52375 40.8038 5.80733 40.8131 6.0882C40.865 7.56852 41.9442 8.65536 43.356 8.65265C44.7611 8.64993 45.8509 7.55224 45.9041 6.0787C45.9134 5.80868 45.9055 5.53867 45.9055 5.27816C47.6313 4.80326 49.26 6.01357 49.2986 7.7829C49.3172 8.62551 49.3012 9.46947 49.3012 10.3623H1.72982C1.72982 9.35685 1.65531 8.37314 1.74978 7.4057V7.40706ZM1.69922 12.1628H49.3026C49.3026 12.3813 49.3026 12.5658 49.3026 12.7503C49.3026 24.2754 49.3026 35.8019 49.3026 47.327C49.3026 49.2334 48.282 50.27 46.4071 50.27C32.4648 50.27 18.5237 50.27 4.58137 50.27C2.71316 50.27 1.69922 49.2307 1.69922 47.3148C1.69922 35.7897 1.69922 24.2632 1.69922 12.7381V12.1628Z" fill="#435188"/>
<path d="M4.58137 50.2698C18.5237 50.2698 32.4648 50.2698 46.4071 50.2698C48.282 50.2698 49.3012 49.2332 49.3026 47.3268C49.3026 35.8017 49.3026 24.2752 49.3026 12.7501C49.3026 12.5656 49.3026 12.3811 49.3026 12.1626H1.69922V12.7379C1.69922 24.263 1.69922 35.7895 1.69922 47.3146C1.69922 49.2304 2.71316 50.2698 4.58137 50.2698ZM8.74624 45.0391C7.95851 45.1124 7.14816 45.107 6.36574 45.0011C5.05241 44.822 4.20347 43.6633 4.27 42.2915C4.33121 41.0188 5.33051 39.9849 6.60792 39.8912C6.95388 39.8655 7.30384 39.8872 7.65247 39.8872C7.65247 39.8831 7.65247 39.8804 7.65247 39.8763C7.95053 39.8763 8.24992 39.8641 8.54798 39.879C9.96244 39.9482 11.0123 41.0052 11.0522 42.3919C11.0908 43.7528 10.1234 44.9143 8.74758 45.0418L8.74624 45.0391ZM17.0081 45.0703C16.7101 45.0825 16.4107 45.0717 16.1126 45.0717C16.1126 45.0798 16.1126 45.0893 16.1113 45.0975C15.6988 45.0703 15.2796 45.0798 14.8738 45.0106C13.5711 44.7895 12.6823 43.6361 12.7568 42.2996C12.8286 41.0039 13.8386 39.9645 15.1426 39.8872C15.7706 39.8492 16.404 39.8532 17.0334 39.8777C18.4958 39.9347 19.5443 41.0351 19.539 42.4774C19.5337 43.9062 18.4612 45.0079 17.0095 45.069L17.0081 45.0703ZM12.7568 31.0011C12.8459 29.7216 13.8572 28.6986 15.1253 28.6212C15.4726 28.5995 15.8212 28.6185 16.1698 28.6185C16.1698 28.6158 16.1698 28.6131 16.1698 28.6104C16.4519 28.6104 16.734 28.6022 17.0161 28.6117C18.3893 28.6606 19.4592 29.6755 19.5323 30.993C19.6109 32.4218 18.7153 33.6076 17.3208 33.7596C16.4879 33.8505 15.623 33.8397 14.794 33.7176C13.5219 33.5303 12.6663 32.3132 12.7581 31.0011H12.7568ZM27.5121 45.0242C26.6951 45.111 25.8489 45.1029 25.0345 44.9944C23.7784 44.8275 22.8842 43.628 22.9521 42.3634C23.0239 41.0323 23.994 39.9943 25.2833 39.8926C25.6293 39.8654 25.9793 39.8885 26.3279 39.8885C26.3279 39.8844 26.3279 39.8817 26.3279 39.8777C26.6432 39.8777 26.9586 39.8627 27.274 39.8804C28.6591 39.9536 29.6771 40.9835 29.7503 42.3702C29.8195 43.6836 28.8627 44.8804 27.5135 45.0256L27.5121 45.0242ZM36.0149 45.0242C35.1979 45.1124 34.3516 45.1056 33.5372 44.9957C32.2332 44.8193 31.3936 43.6429 31.4668 42.2657C31.5333 41.0228 32.5286 39.9916 33.7794 39.8939C34.1427 39.8654 34.5086 39.8899 34.8732 39.8899C34.8732 39.8858 34.8732 39.8831 34.8732 39.879C35.1713 39.879 35.4707 39.8654 35.7687 39.8817C37.1393 39.955 38.1732 40.9767 38.2424 42.3159C38.3129 43.6863 37.3868 44.8763 36.0149 45.0256V45.0242ZM44.487 45.0296C43.6687 45.1138 42.8224 45.1029 42.0094 44.9903C40.7599 44.818 39.8897 43.6266 39.9482 42.3403C40.0081 41.0554 40.9914 40.0011 42.2516 39.8953C42.6135 39.8655 42.9807 39.8912 43.3453 39.8912V39.8763C43.6434 39.8763 43.9428 39.8641 44.2408 39.879C45.6181 39.9455 46.6626 40.9618 46.7278 42.2915C46.797 43.7189 45.8895 44.8872 44.487 45.031V45.0296ZM39.9509 31.0174C40.0427 29.7108 41.0593 28.6918 42.3553 28.6199C42.6867 28.6009 43.0193 28.6171 43.3507 28.6171C43.3507 28.6158 43.3507 28.6144 43.3507 28.6117C43.6487 28.6117 43.9481 28.6009 44.2462 28.6131C45.6114 28.6687 46.6653 29.6972 46.7278 31.0283C46.7957 32.4516 45.8802 33.6266 44.4817 33.7664C43.6634 33.8478 42.8157 33.8397 42.0041 33.7216C40.7293 33.5344 39.8591 32.3159 39.9509 31.0174ZM39.9509 19.7447C40.0454 18.438 41.0739 17.4055 42.3607 17.3526C42.9901 17.3268 43.6221 17.3295 44.2515 17.3485C45.65 17.3905 46.7065 18.472 46.7318 19.8682C46.7584 21.2915 45.7298 22.4367 44.3287 22.5289C43.9987 22.5507 43.6647 22.5317 43.3334 22.5317C43.3334 22.5439 43.332 22.5574 43.3307 22.5697C42.869 22.5344 42.3979 22.5452 41.9468 22.453C40.704 22.1979 39.8564 21.0215 39.9482 19.7447H39.9509ZM36.0455 33.7528C35.2138 33.8492 34.3476 33.8424 33.5186 33.723C32.192 33.5317 31.363 32.3241 31.4694 30.9279C31.5626 29.6958 32.5925 28.6904 33.846 28.6185C34.1773 28.5995 34.5099 28.6158 34.8413 28.6158C34.8413 28.6144 34.8413 28.6117 34.8413 28.6104C35.1393 28.6104 35.4387 28.6009 35.7368 28.6117C37.1033 28.6646 38.1532 29.6755 38.241 31.0147C38.3302 32.3811 37.412 33.5954 36.0455 33.7515V33.7528ZM31.4708 19.6416C31.5732 18.4095 32.6151 17.4014 33.8646 17.3526C34.494 17.3281 35.126 17.3295 35.7554 17.3485C37.1473 17.3905 38.2171 18.4828 38.245 19.8682C38.273 21.2725 37.2244 22.434 35.8313 22.5276C35.5013 22.5493 35.1673 22.5303 34.8359 22.5303C34.8359 22.5425 34.8346 22.5561 34.8333 22.5683C34.3716 22.5317 33.9005 22.5439 33.4508 22.4516C32.1627 22.1857 31.3563 21.0147 31.4708 19.6402V19.6416ZM25.4776 17.3444C25.7757 17.3363 26.0751 17.3444 26.3731 17.3431C26.6552 17.3431 26.9373 17.3363 27.2194 17.3431C28.6512 17.3865 29.7529 18.5154 29.7503 19.9319C29.7476 21.3485 28.6445 22.4896 27.2181 22.5317C26.6379 22.5493 26.0564 22.5493 25.4763 22.5317C24.0485 22.4882 22.9467 21.3485 22.9467 19.9306C22.9467 18.5113 24.0445 17.3851 25.4776 17.3431V17.3444ZM22.3586 29.7406C22.7099 29.3756 23.1916 29.3756 23.5961 29.78C24.2002 30.3824 24.783 31.0079 25.4284 31.6796C26.7031 30.164 27.9233 28.7148 29.1435 27.2644C29.403 26.9564 29.6505 26.6375 29.9246 26.3417C30.2852 25.9536 30.7642 25.9211 31.1261 26.2372C31.4761 26.5425 31.532 27.0663 31.2007 27.4638C29.5254 29.476 27.8435 31.4828 26.1482 33.4787C25.777 33.9157 25.29 33.9224 24.8775 33.514C24.0312 32.6782 23.1982 31.8275 22.3772 30.9659C22.0113 30.5832 22.026 30.0853 22.3599 29.7379L22.3586 29.7406ZM14.4533 19.7406C14.5505 18.434 15.579 17.4055 16.8671 17.3526C17.4965 17.3268 18.1285 17.3295 18.7579 17.3485C20.1524 17.3905 21.2103 18.4774 21.2342 19.8722C21.2582 21.2942 20.2283 22.4394 18.8271 22.5289C18.4971 22.5507 18.1631 22.5317 17.8318 22.5317C17.8318 22.5439 17.8305 22.5574 17.8291 22.5697C17.3674 22.533 16.8964 22.5452 16.4466 22.4516C15.2051 22.1952 14.3575 21.0161 14.452 19.7393L14.4533 19.7406ZM4.52016 19.3268C4.90338 18.9455 5.40104 19.0161 5.90535 19.5317C6.45623 20.0934 7.00179 20.6592 7.59392 21.2671C8.97777 19.6199 10.3164 18.0269 11.6563 16.4367C11.8293 16.2318 11.9956 16.0161 12.1926 15.8383C12.5133 15.5493 12.9777 15.5588 13.2824 15.8465C13.6017 16.1477 13.6536 16.5154 13.458 16.9062C13.3915 17.0391 13.2877 17.1558 13.1919 17.2711C11.6497 19.1097 10.1048 20.9469 8.56129 22.784C7.87867 23.5954 7.5061 23.6104 6.76893 22.8587C6.077 22.1531 5.38374 21.4475 4.69181 20.7406C4.19948 20.2359 4.13694 19.7094 4.52016 19.3281V19.3268ZM4.27133 30.9469C4.35915 29.6918 5.39704 28.6836 6.67977 28.6171C6.9938 28.6009 7.31049 28.6144 7.62585 28.6144C7.62585 28.6131 7.62585 28.6104 7.62585 28.609C7.92391 28.609 8.22331 28.5995 8.52137 28.6104C9.91188 28.6606 10.9671 29.6823 11.0469 31.0473C11.1254 32.4028 10.1833 33.6117 8.81677 33.7596C7.99976 33.8478 7.15215 33.8437 6.33913 33.727C5.00451 33.5357 4.17419 32.3458 4.27266 30.9469H4.27133Z" fill="#FAFAFA"/>
<path d="M49.3013 10.3637C49.3013 9.47086 49.3173 8.6269 49.2987 7.7843C49.2601 6.01496 47.6314 4.80465 45.9056 5.27955C45.9056 5.54142 45.9136 5.81143 45.9042 6.08009C45.851 7.55228 44.7599 8.65133 43.3561 8.65404C41.9443 8.65675 40.8651 7.57127 40.8132 6.08959C40.8039 5.80736 40.8119 5.52514 40.8119 5.22935H11.9133C11.8973 6.07059 11.9425 6.89692 11.4156 7.59027C10.8953 8.27412 10.2247 8.64726 9.36642 8.6554C8.74236 8.66218 8.19547 8.4573 7.71644 8.05431C6.84088 7.3189 6.73709 6.30397 6.80096 5.19135C6.05049 5.19135 5.35856 5.18593 4.66663 5.19407C4.38587 5.19678 4.09978 5.19814 3.82434 5.24834C2.71459 5.4478 1.86033 6.26598 1.74855 7.40845C1.65408 8.37589 1.72859 9.3596 1.72859 10.365H49.3L49.3013 10.3637Z" fill="#FAFAFA"/>
<path d="M42.5098 4.33699C42.5098 4.87701 42.5018 5.41568 42.5111 5.95571C42.5218 6.57036 42.8398 6.92179 43.3574 6.91772C43.8484 6.91365 44.1944 6.56222 44.2024 5.99235C44.2183 4.87973 44.2197 3.76711 44.2024 2.65449C44.193 2.10089 43.8191 1.72912 43.3441 1.73319C42.8611 1.73726 42.5244 2.10225 42.5125 2.66806C42.5005 3.22437 42.5098 3.78068 42.5098 4.33699Z" fill="#FAFAFA"/>
<path d="M9.3652 6.91651C9.84556 6.90973 10.1702 6.57866 10.1875 6.0332C10.2062 5.46061 10.1915 4.88666 10.1915 4.31407C10.1915 3.75776 10.2048 3.20145 10.1889 2.64514C10.1729 2.10104 9.85221 1.75369 9.38516 1.73334C8.91013 1.71163 8.5136 2.07798 8.50295 2.62479C8.48166 3.77133 8.48033 4.91787 8.50562 6.06441C8.51759 6.59629 8.88884 6.92465 9.3652 6.91651Z" fill="#FAFAFA"/>
<path d="M8.54823 39.8773C8.25017 39.8624 7.95078 39.8746 7.65272 39.8746C7.65272 39.8786 7.65272 39.8814 7.65272 39.8854C7.30409 39.8854 6.95413 39.8637 6.60817 39.8895C5.33076 39.9845 4.33279 41.017 4.27025 42.2898C4.20372 43.6616 5.05266 44.8217 6.36599 44.9994C7.14841 45.1052 7.96009 45.1107 8.7465 45.0374C10.1237 44.9099 11.0897 43.7484 11.0511 42.3875C11.0126 41.0021 9.96269 39.9451 8.5469 39.8746L8.54823 39.8773ZM8.71456 43.2762C8.01066 43.3373 7.29345 43.3359 6.58821 43.2762C6.16108 43.2396 5.92156 42.8162 5.97213 42.3766C6.02269 41.9329 6.27551 41.6656 6.71196 41.6249C6.79047 41.6181 6.86897 41.6141 6.94748 41.6127C7.183 41.6073 7.41986 41.6195 7.65671 41.6195C7.97207 41.6195 8.28876 41.5964 8.60013 41.6249C9.02992 41.6643 9.34927 42.0103 9.34927 42.4295C9.34927 42.8637 9.14569 43.2382 8.71589 43.2749L8.71456 43.2762Z" fill="#435188"/>
<path d="M44.2452 39.8773C43.9472 39.8624 43.6478 39.8746 43.3497 39.8746V39.8895C42.9851 39.8895 42.6179 39.8637 42.2559 39.8936C40.9958 39.9994 40.0125 41.0523 39.9526 42.3386C39.8927 43.6249 40.763 44.8149 42.0138 44.9886C42.8281 45.1012 43.6744 45.112 44.4914 45.0279C45.8952 44.8841 46.8027 43.7145 46.7322 42.2884C46.667 40.9601 45.6211 39.9424 44.2452 39.8759V39.8773ZM44.3756 43.2884C43.7037 43.3508 43.0197 43.344 42.3451 43.2952C41.9166 43.264 41.6385 42.8515 41.6518 42.4404C41.6665 42.0008 41.9845 41.6561 42.4449 41.6208C42.7416 41.5978 43.041 41.6168 43.3391 41.6168V41.6195C43.6544 41.6195 43.9698 41.5978 44.2825 41.6249C44.7256 41.6629 45.021 41.9858 45.0343 42.4187C45.0489 42.8895 44.8214 43.2477 44.3756 43.2898V43.2884Z" fill="#435188"/>
<path d="M25.4788 22.5335C26.0589 22.5512 26.6404 22.5512 27.2205 22.5335C28.647 22.4915 29.7501 21.3504 29.7527 19.9338C29.7554 18.5172 28.6523 17.387 27.2219 17.3449C26.9398 17.3368 26.6577 17.3449 26.3756 17.3449C26.0775 17.3449 25.7781 17.3368 25.4801 17.3449C24.0483 17.387 22.9492 18.5132 22.9492 19.9324C22.9492 21.3504 24.051 22.4901 25.4788 22.5335ZM24.6657 19.8442C24.707 19.4196 25.013 19.1115 25.4561 19.0831C25.6052 19.0736 25.7542 19.0722 25.9032 19.0736C26.0523 19.0749 26.2013 19.079 26.3516 19.079C26.5752 19.079 26.8001 19.0695 27.0236 19.0736C27.0981 19.0736 27.1726 19.0776 27.2472 19.0831C27.7036 19.1129 28.0256 19.4535 28.0455 19.8958C28.0642 20.3137 27.794 20.7316 27.3669 20.7642C26.6923 20.8158 26.0083 20.8185 25.335 20.7642C24.884 20.7276 24.6245 20.2947 24.6684 19.8442H24.6657Z" fill="#435188"/>
<path d="M26.3775 17.3428C26.6595 17.3428 26.9416 17.3363 27.2237 17.3428C26.9416 17.335 26.6595 17.3428 26.3775 17.3428C26.0794 17.3428 25.78 17.3363 25.4819 17.3441C25.78 17.3363 26.0794 17.3441 26.3775 17.3441V17.3428Z" fill="#435188"/>
<path d="M16.4507 22.4533C16.9004 22.5456 17.3715 22.5347 17.8332 22.5714C17.8332 22.5592 17.8345 22.5456 17.8359 22.5334C18.1672 22.5334 18.5012 22.551 18.8312 22.5307C20.2323 22.4398 21.2622 21.2959 21.2383 19.874C21.2143 18.4805 20.1565 17.3923 18.762 17.3502C18.1326 17.3312 17.5005 17.3285 16.8711 17.3543C15.5831 17.4058 14.5545 18.4357 14.4574 19.7423C14.3629 21.0191 15.2092 22.1982 16.452 22.4547L16.4507 22.4533ZM16.1526 19.8943C16.1752 19.4384 16.5159 19.1046 17.0069 19.0802C17.0774 19.0761 17.1479 19.0748 17.2184 19.0734C17.43 19.0707 17.6416 19.0775 17.8532 19.0775C18.1352 19.0775 18.4173 19.0666 18.6981 19.0802C19.1825 19.1046 19.4965 19.3991 19.5351 19.8455C19.5763 20.3163 19.2916 20.7437 18.8192 20.7776C18.1765 20.8251 17.5258 20.8224 16.8831 20.7776C16.4387 20.7464 16.134 20.319 16.1539 19.8929L16.1526 19.8943Z" fill="#435188"/>
<path d="M33.4532 22.4538C33.9029 22.5474 34.3753 22.5352 34.8357 22.5705C34.8357 22.5583 34.837 22.5447 34.8383 22.5325C35.1697 22.5325 35.5037 22.5515 35.8337 22.5298C37.2268 22.4362 38.2754 21.2747 38.2474 19.8704C38.2195 18.485 37.1497 17.3928 35.7578 17.3507C35.1284 17.3317 34.4964 17.3303 33.867 17.3548C32.6175 17.4036 31.5756 18.4117 31.4732 19.6438C31.3587 21.0183 32.1651 22.1892 33.4532 22.4552V22.4538ZM34.0094 19.082C34.5722 19.0657 35.1377 19.0644 35.7006 19.082C36.1916 19.097 36.5296 19.4416 36.5482 19.8989C36.5668 20.3453 36.2382 20.7415 35.7658 20.7917C35.4544 20.8242 35.1364 20.7984 34.821 20.7984C34.821 20.7998 34.821 20.8012 34.821 20.8025C34.539 20.8025 34.2555 20.8229 33.9761 20.7984C33.4665 20.7523 33.1418 20.3765 33.1631 19.8921C33.183 19.4226 33.5051 19.0983 34.0094 19.0834V19.082Z" fill="#435188"/>
<path d="M41.9522 22.454C42.4032 22.5462 42.8743 22.5354 43.336 22.5706C43.336 22.5584 43.3373 22.5449 43.3387 22.5327C43.67 22.5327 44.004 22.5516 44.334 22.5299C45.7338 22.4363 46.7624 21.2911 46.7371 19.8692C46.7118 18.4743 45.654 17.3915 44.2568 17.3495C43.6274 17.3305 42.9954 17.3278 42.366 17.3535C41.0793 17.4065 40.0507 18.439 39.9562 19.7457C39.8631 21.0238 40.7107 22.1989 41.9548 22.454H41.9522ZM42.5004 19.0822C43.0632 19.0645 43.6287 19.0645 44.1916 19.0822C44.6959 19.0971 45.0153 19.4214 45.0339 19.8936C45.0525 20.3807 44.7305 20.7538 44.2195 20.7986C43.9228 20.8244 43.6234 20.8027 43.324 20.8027C43.324 20.8013 43.324 20.8 43.324 20.7972C43.026 20.7972 42.7239 20.823 42.4298 20.7918C41.9575 20.7403 41.6288 20.3427 41.6488 19.8976C41.6687 19.4417 42.0107 19.0971 42.499 19.0822H42.5004Z" fill="#435188"/>
<path d="M27.2752 39.8789C26.9612 39.8626 26.6445 39.8761 26.3291 39.8761C26.3291 39.8802 26.3291 39.8829 26.3291 39.887C25.9805 39.887 25.6306 39.8639 25.2846 39.8911C23.9952 39.9942 23.0252 41.0308 22.9533 42.3619C22.8855 43.6251 23.7796 44.8259 25.0358 44.9928C25.8501 45.1014 26.6964 45.1095 27.5134 45.0227C28.8627 44.8789 29.8194 43.6808 29.7502 42.3673C29.677 40.9806 28.6591 39.9508 27.2739 39.8775L27.2752 39.8789ZM27.379 43.2886C26.7057 43.3456 26.0231 43.3483 25.3498 43.2981C24.8947 43.2642 24.6179 42.8422 24.6685 42.3931C24.7204 41.9304 24.9825 41.6536 25.4443 41.6197C25.741 41.598 26.0404 41.6156 26.3385 41.6156C26.3385 41.6156 26.3385 41.6156 26.3385 41.617C26.6525 41.617 26.9692 41.5966 27.2819 41.6224C27.7157 41.6591 28.019 41.9928 28.0443 42.4148C28.0696 42.8382 27.8128 43.2506 27.379 43.2873V43.2886Z" fill="#435188"/>
<path d="M42.0084 33.7206C42.8214 33.84 43.6677 33.8481 44.486 33.7653C45.8845 33.6256 46.7986 32.4505 46.7321 31.0272C46.6696 29.6961 45.6144 28.6676 44.2505 28.612C43.9524 28.5998 43.653 28.6106 43.355 28.6106C43.355 28.612 43.355 28.6134 43.355 28.6161C43.0236 28.6161 42.691 28.5998 42.3596 28.6188C41.0636 28.6907 40.0457 29.7111 39.9552 31.0163C39.8647 32.3149 40.7336 33.5333 42.0084 33.7206ZM41.6571 31.1276C41.7209 30.6771 41.9724 30.3841 42.4381 30.3528C42.7349 30.3325 43.0343 30.3488 43.3337 30.3488C43.3337 30.3488 43.3337 30.3474 43.3337 30.3461C43.6317 30.3461 43.9311 30.3325 44.2292 30.3488C44.6882 30.3746 44.9677 30.6283 45.0302 31.0937C45.0901 31.5469 44.8293 31.9865 44.3822 32.0218C43.6929 32.0774 42.9917 32.0733 42.3024 32.0136C41.8806 31.977 41.6012 31.5319 41.6584 31.1249L41.6571 31.1276Z" fill="#435188"/>
<path d="M6.34181 33.7281C7.15482 33.8448 8.00244 33.8489 8.81945 33.7607C10.186 33.6128 11.1281 32.4038 11.0496 31.0483C10.9697 29.6833 9.91456 28.6616 8.52405 28.6114C8.22598 28.6005 7.92659 28.61 7.62853 28.61C7.62853 28.6114 7.62853 28.6141 7.62853 28.6155C7.31317 28.6155 6.99781 28.6019 6.68245 28.6182C5.40105 28.6847 4.36183 29.6928 4.27401 30.9479C4.17554 32.3468 5.00585 33.5368 6.34048 33.7281H6.34181ZM6.81152 30.3495C7.37438 30.3319 7.93857 30.3319 8.50276 30.3495C8.99376 30.3658 9.33307 30.7105 9.3517 31.1664C9.37033 31.61 9.04166 32.0049 8.56796 32.0578C8.27389 32.0904 7.97183 32.0646 7.67377 32.0646V32.07C7.37571 32.07 7.07499 32.0917 6.77959 32.0646C6.26463 32.0171 5.94794 31.648 5.96657 31.1596C5.9852 30.6887 6.30322 30.3672 6.81152 30.3509V30.3495Z" fill="#435188"/>
<path d="M35.7394 28.612C35.4413 28.5998 35.1419 28.6106 34.8439 28.6106C34.8439 28.612 34.8439 28.6147 34.8439 28.6161C34.5125 28.6161 34.1799 28.5998 33.8486 28.6188C32.5951 28.6893 31.5652 29.6948 31.472 30.9281C31.3656 32.3244 32.1959 33.5319 33.5212 33.7233C34.3502 33.8427 35.2151 33.8495 36.0481 33.7531C37.4146 33.5957 38.3328 32.3813 38.2436 31.0163C38.1571 29.6771 37.1073 28.6663 35.7394 28.6134V28.612ZM35.9177 32.0096C35.2125 32.0706 34.4952 32.0801 33.7913 32.0109C33.3482 31.9675 33.1353 31.5849 33.1673 31.1154C33.1952 30.688 33.5039 30.3949 33.9523 30.3488C33.9856 30.3461 34.0189 30.3433 34.0521 30.3433C34.3169 30.3433 34.5831 30.3433 34.8479 30.3433C34.8479 30.3447 34.8479 30.3461 34.8479 30.3488C35.1459 30.3488 35.4453 30.3352 35.7434 30.3515C36.2091 30.3773 36.4686 30.6581 36.5418 31.1086C36.6083 31.5157 36.3395 31.9729 35.919 32.0096H35.9177Z" fill="#435188"/>
<path d="M35.7712 39.8789C35.4731 39.8626 35.1738 39.8761 34.8757 39.8761C34.8757 39.8802 34.8757 39.8829 34.8757 39.887C34.5111 39.887 34.1438 39.8626 33.7819 39.8911C32.5311 39.9888 31.5345 41.02 31.4693 42.2629C31.3961 43.6401 32.2357 44.8164 33.5397 44.9928C34.3541 45.1027 35.2004 45.1109 36.0174 45.0213C37.3893 44.8721 38.3167 43.6821 38.2449 42.3117C38.1757 40.9725 37.1404 39.9508 35.7712 39.8775V39.8789ZM35.8843 43.2859C35.195 43.3388 34.4951 43.3402 33.8059 43.2832C33.3774 43.2479 33.1352 42.83 33.1658 42.3958C33.1951 41.9698 33.4932 41.6563 33.9403 41.6211C34.237 41.598 34.5364 41.617 34.8344 41.617C35.1498 41.617 35.4665 41.5966 35.7792 41.6238C36.217 41.6604 36.5204 41.9888 36.5496 42.4121C36.5776 42.8246 36.3114 43.2547 35.8856 43.2873L35.8843 43.2859Z" fill="#435188"/>
<path d="M17.0333 39.8791C16.4039 39.8546 15.7705 39.8506 15.1425 39.8885C13.8385 39.9672 12.8272 41.0052 12.7567 42.301C12.6835 43.6362 13.571 44.7909 14.8737 45.012C15.2795 45.0812 15.6987 45.0717 16.1112 45.0989C16.1112 45.0907 16.1112 45.0812 16.1125 45.0731C16.4106 45.0731 16.71 45.0839 17.008 45.0717C18.4597 45.0107 19.5322 43.9089 19.5376 42.4801C19.5429 41.0378 18.4943 39.9374 17.032 39.8804L17.0333 39.8791ZM17.1903 43.2834C16.5024 43.3485 15.8011 43.3404 15.1119 43.2847C14.6874 43.2508 14.408 42.8166 14.4585 42.4042C14.5144 41.9496 14.7659 41.6565 15.2303 41.6213C15.3088 41.6158 15.3873 41.6118 15.4658 41.6104C15.7013 41.6063 15.9382 41.6172 16.175 41.6172C16.4731 41.6172 16.7738 41.5982 17.0692 41.6226C17.515 41.6592 17.817 41.9754 17.8357 42.4028C17.8556 42.8723 17.6361 43.2413 17.1903 43.2834Z" fill="#435188"/>
<path d="M14.7938 33.7176C15.6227 33.8397 16.4876 33.8492 17.3206 33.7597C18.7165 33.6077 19.612 32.4218 19.5321 30.9931C19.459 29.6756 18.3891 28.6606 17.0159 28.6118C16.7338 28.6023 16.4517 28.6104 16.1696 28.6104C16.1696 28.6131 16.1696 28.6159 16.1696 28.6186C15.821 28.6186 15.4724 28.6009 15.1251 28.6213C13.8583 28.6986 12.8457 29.7217 12.7566 31.0012C12.6661 32.3119 13.5203 33.5304 14.7924 33.7176H14.7938ZM14.4544 31.1342C14.489 30.7122 14.7977 30.4001 15.2329 30.3499C15.2661 30.3458 15.2994 30.3431 15.3327 30.3431C15.6148 30.3431 15.8968 30.3431 16.1789 30.3431C16.1789 30.3458 16.1789 30.3486 16.1789 30.3499C16.477 30.3499 16.7777 30.3309 17.0731 30.354C17.5149 30.3893 17.8183 30.7081 17.8356 31.1382C17.8555 31.6091 17.6293 31.9768 17.1862 32.0188C16.4983 32.084 15.7971 32.0745 15.1065 32.0188C14.6833 31.9836 14.4198 31.5467 14.4531 31.1342H14.4544Z" fill="#435188"/>
<path d="M6.77149 22.8583C7.50866 23.61 7.88124 23.5951 8.56386 22.7837C10.1087 20.9465 11.6523 19.1093 13.1945 17.2708C13.2916 17.1555 13.394 17.0401 13.4606 16.9058C13.6549 16.5137 13.603 16.1473 13.2849 15.8461C12.9802 15.5571 12.5158 15.549 12.1951 15.838C11.9982 16.0157 11.8319 16.2315 11.6589 16.4363C10.319 18.0279 8.98167 19.6209 7.59649 21.2667C7.00435 20.6575 6.4588 20.0917 5.90791 19.5313C5.4036 19.0171 4.90595 18.9465 4.52273 19.3264C4.1395 19.7077 4.20071 20.2342 4.69438 20.7389C5.38498 21.4458 6.07823 22.1514 6.77149 22.857V22.8583Z" fill="#435188"/>
<path d="M24.8792 33.5151C25.2916 33.9235 25.78 33.9153 26.1499 33.4798C27.8438 31.4839 29.527 29.4784 31.2023 27.4649C31.5336 27.0659 31.4791 26.5436 31.1278 26.2383C30.7659 25.9221 30.2868 25.9547 29.9262 26.3427C29.6535 26.6372 29.4046 26.956 29.1452 27.2654C27.925 28.7159 26.7048 30.165 25.43 31.6806C24.7847 31.009 24.2019 30.3834 23.5978 29.781C23.1932 29.3767 22.7116 29.3767 22.3603 29.7417C22.0263 30.089 22.0116 30.5856 22.3776 30.9696C23.1986 31.8312 24.0315 32.682 24.8778 33.5178L24.8792 33.5151Z" fill="#435188"/>
<path d="M8.59874 41.6247C8.28604 41.5962 7.96935 41.6193 7.65532 41.6193C7.4198 41.6193 7.18162 41.6057 6.9461 41.6111C6.86759 41.6125 6.78908 41.6166 6.71058 41.6234C6.27413 41.6627 6.02131 41.9314 5.97074 42.3751C5.92151 42.8147 6.15969 43.238 6.58683 43.2746C7.29206 43.3343 8.00794 43.3357 8.71318 43.2746C9.14164 43.238 9.34523 42.8635 9.34656 42.4293C9.34656 42.0087 9.02721 41.6641 8.59741 41.6247H8.59874Z" fill="#FAFAFA"/>
<path d="M44.281 41.6236C43.9683 41.5965 43.6516 41.6182 43.3376 41.6182V41.6155C43.0395 41.6155 42.7401 41.5965 42.4434 41.6196C41.9843 41.6562 41.665 42.0009 41.6504 42.4391C41.6371 42.8516 41.9165 43.2641 42.3436 43.2939C43.0183 43.3428 43.7022 43.3496 44.3742 43.2872C44.8213 43.2451 45.0475 42.8869 45.0328 42.4161C45.0195 41.9846 44.7241 41.6603 44.281 41.6223V41.6236Z" fill="#FAFAFA"/>
<path d="M25.334 20.7634C26.0073 20.8191 26.6913 20.8163 27.3659 20.7634C27.793 20.7309 28.0618 20.313 28.0445 19.895C28.0259 19.4541 27.7026 19.1121 27.2461 19.0823C27.1716 19.0769 27.0971 19.0741 27.0226 19.0728C26.7991 19.0687 26.5742 19.0782 26.3506 19.0782C26.2016 19.0782 26.0526 19.0741 25.9022 19.0728C25.7532 19.0714 25.6041 19.0728 25.4551 19.0823C25.012 19.1108 24.706 19.4174 24.6647 19.8435C24.6221 20.294 24.8803 20.7254 25.3314 20.7634H25.334Z" fill="#FAFAFA"/>
<path d="M26.3508 19.0799C26.2017 19.0799 26.0527 19.076 25.9023 19.0747C26.0514 19.076 26.2004 19.0799 26.3508 19.0799Z" fill="#FAFAFA"/>
<path d="M16.8804 20.7776C17.5231 20.8224 18.1737 20.8251 18.8164 20.7776C19.2901 20.7423 19.5736 20.3149 19.5323 19.8454C19.4937 19.399 19.1797 19.1046 18.6953 19.0802C18.4146 19.0666 18.1312 19.0775 17.8504 19.0775C17.6388 19.0775 17.4273 19.0707 17.2157 19.0734C17.1452 19.0734 17.0746 19.0761 17.0041 19.0802C16.5144 19.1046 16.1725 19.4384 16.1499 19.8943C16.1299 20.3203 16.4346 20.7477 16.879 20.779L16.8804 20.7776Z" fill="#FAFAFA"/>
<path d="M33.9765 20.7975C34.2559 20.8219 34.5393 20.8016 34.8214 20.8016C34.8214 20.8002 34.8214 20.7989 34.8214 20.7975C35.1368 20.7975 35.4535 20.8233 35.7662 20.7907C36.2386 20.7419 36.5659 20.3443 36.5486 19.8979C36.53 19.4393 36.1907 19.096 35.701 19.0811C35.1381 19.0635 34.5726 19.0635 34.0098 19.0811C33.5054 19.096 33.1834 19.4203 33.1635 19.8898C33.1435 20.3742 33.4669 20.7514 33.9765 20.7962V20.7975Z" fill="#FAFAFA"/>
<path d="M42.4315 20.7907C42.7269 20.8233 43.0276 20.7962 43.3257 20.7962C43.3257 20.7975 43.3257 20.7989 43.3257 20.8016C43.6237 20.8016 43.9245 20.8219 44.2212 20.7975C44.7322 20.7541 45.0542 20.381 45.0355 19.8925C45.0169 19.4203 44.6976 19.096 44.1932 19.0811C43.6304 19.0635 43.0649 19.0635 42.502 19.0811C42.0123 19.096 41.6717 19.4407 41.6517 19.8966C41.6318 20.3416 41.9604 20.7392 42.4328 20.7907H42.4315Z" fill="#FAFAFA"/>
<path d="M27.2809 41.6224C26.9682 41.5966 26.6515 41.617 26.3375 41.617C26.3375 41.617 26.3375 41.617 26.3375 41.6156C26.0394 41.6156 25.74 41.598 25.4433 41.6197C24.9816 41.6536 24.7194 41.9304 24.6675 42.3931C24.617 42.8409 24.8938 43.2629 25.3488 43.2981C26.0221 43.3483 26.7061 43.3456 27.378 43.2886C27.8105 43.252 28.0686 42.8395 28.0434 42.4162C28.0181 41.9942 27.7134 41.6604 27.2809 41.6238V41.6224Z" fill="#FAFAFA"/>
<path d="M42.3007 32.0161C42.99 32.0758 43.6912 32.0799 44.3805 32.0243C44.8289 31.9876 45.0897 31.548 45.0285 31.0962C44.966 30.6294 44.6865 30.3757 44.2275 30.3513C43.9294 30.335 43.6314 30.3486 43.332 30.3486C43.332 30.3486 43.332 30.3499 43.332 30.3513C43.0339 30.3513 42.7345 30.335 42.4364 30.3553C41.9707 30.3879 41.7192 30.6796 41.6554 31.1301C41.5981 31.5358 41.8776 31.9822 42.2994 32.0188L42.3007 32.0161Z" fill="#FAFAFA"/>
<path d="M6.77972 32.064C7.07512 32.0912 7.37585 32.0695 7.67391 32.0695V32.064C7.97197 32.064 8.27269 32.0912 8.56809 32.0572C9.0418 32.0043 9.37046 31.6095 9.35184 31.1658C9.33188 30.7099 8.9939 30.3652 8.50289 30.349C7.94004 30.33 7.37585 30.33 6.81166 30.349C6.30469 30.3652 5.98667 30.6882 5.96671 31.1576C5.94675 31.6461 6.26477 32.0165 6.77972 32.0627V32.064Z" fill="#FAFAFA"/>
<path d="M35.7421 30.3494C35.444 30.3332 35.146 30.3467 34.8466 30.3467C34.8466 30.3454 34.8466 30.344 34.8466 30.3413C34.5818 30.3413 34.3157 30.3413 34.0509 30.3413C34.0176 30.3413 33.9843 30.344 33.9511 30.3467C33.5026 30.3929 33.1953 30.6859 33.166 31.1134C33.1354 31.5828 33.347 31.9655 33.7901 32.0089C34.4926 32.0781 35.2112 32.0686 35.9164 32.0075C36.3369 31.9709 36.6043 31.5136 36.5391 31.1066C36.466 30.6561 36.2065 30.3739 35.7408 30.3494H35.7421Z" fill="#FAFAFA"/>
<path d="M35.778 41.6226C35.4653 41.5968 35.1487 41.6172 34.8333 41.6172C34.5352 41.6172 34.2358 41.5968 33.9391 41.6199C33.492 41.6552 33.194 41.9686 33.1647 42.3947C33.1341 42.8288 33.3776 43.2468 33.8047 43.282C34.494 43.339 35.1939 43.339 35.8832 43.2847C36.309 43.2522 36.5751 42.8221 36.5472 42.4096C36.5179 41.9862 36.2145 41.6579 35.7767 41.6213L35.778 41.6226Z" fill="#FAFAFA"/>
<path d="M17.0693 41.6229C16.7725 41.5984 16.4731 41.6188 16.1751 41.6188C15.9382 41.6188 15.7014 41.6079 15.4658 41.612C15.3873 41.6134 15.3088 41.6174 15.2303 41.6229C14.7659 41.6581 14.5144 41.9526 14.4586 42.4058C14.408 42.8183 14.6861 43.2511 15.1119 43.2864C15.8012 43.342 16.5024 43.3488 17.1903 43.285C17.6374 43.2429 17.857 42.8739 17.8357 42.4044C17.8171 41.977 17.515 41.6609 17.0693 41.6242V41.6229Z" fill="#FAFAFA"/>
<path d="M15.108 32.0186C15.7972 32.0756 16.4998 32.0851 17.1877 32.0186C17.6308 31.9765 17.8571 31.6102 17.8371 31.138C17.8185 30.7078 17.5164 30.389 17.0746 30.3537C16.7779 30.3306 16.4785 30.3496 16.1805 30.3496C16.1805 30.3469 16.1805 30.3442 16.1805 30.3429C15.8984 30.3429 15.6163 30.3429 15.3342 30.3429C15.3009 30.3429 15.2676 30.3456 15.2344 30.3496C14.7993 30.3985 14.4906 30.7106 14.456 31.1339C14.4227 31.5464 14.6848 31.9833 15.1093 32.0186H15.108Z" fill="#FAFAFA"/>
</svg>
