<svg width="71" height="52" viewBox="0 0 71 52" fill="none" xmlns="http://www.w3.org/2000/svg">
<path d="M35.9573 0.936623C31.5439 2.40776 27.2436 5.35003 23.9618 9.08445C21.4156 12.0267 21.1893 12.1965 19.5484 11.6872C10.3821 9.08445 1.04606 15.2519 0.0841679 24.4748C-0.990893 34.8293 8.40175 43.0338 18.5865 40.6007L21.4722 39.9217L24.2448 43.0338C34.4861 54.5199 51.7437 55.0292 62.4377 44.222C75.1121 31.3212 71.4909 10.4424 55.082 2.35117C51.1213 0.42738 50.3857 0.201054 45.0104 0.0313072C40.4273 -0.0818596 38.56 0.0878868 35.9573 0.936623ZM45.8026 2.74725C46.9908 3.93547 49.1409 8.46205 49.1409 9.76344C49.1409 10.8385 47.7829 11.178 43.5959 11.178C38.3337 11.178 38.0508 10.8951 39.4654 7.21724C40.6536 4.04864 42.634 1.55902 43.8788 1.55902C44.2748 1.55902 45.1236 2.06826 45.8026 2.74725ZM39.5219 2.5775C39.5219 2.80383 39.2956 3.25649 39.0693 3.5394C38.6166 4.04864 38.164 5.18028 36.7494 9.02787L36.1836 10.5556L33.1847 9.65028C31.5439 9.19762 29.7332 8.46205 29.1674 8.06598C28.2055 7.38699 28.2621 7.27382 29.9596 6.02901C31.8268 4.72763 37.5981 2.18143 38.843 2.12485C39.1824 2.12485 39.5219 2.35117 39.5219 2.5775ZM54.6294 4.27497C56.2703 5.06712 58.0243 6.14218 58.5335 6.708C59.3257 7.61332 59.3257 7.72648 58.1375 8.40547C57.4019 8.74496 55.6479 9.42395 54.1201 9.76344L51.4608 10.499L50.7818 8.40547C50.4423 7.27382 49.6501 5.40661 49.0277 4.21839L47.9527 2.01168L49.8199 2.40776C50.8384 2.63409 53.0451 3.48282 54.6294 4.27497ZM33.4111 11.7438L35.9573 12.4228L35.5046 14.7427C35.2783 16.0441 35.0519 18.8166 34.9954 20.9101V24.7577H32.5623C30.1859 24.7577 30.1293 24.7577 29.4503 22.1549C28.6582 19.2692 26.112 15.1953 24.2448 13.9505C23.0565 13.1584 23.0565 13.1584 24.8106 11.0648L26.5646 8.91471L28.7147 10.0464C29.903 10.6122 31.9965 11.4043 33.4111 11.7438ZM62.947 10.8951C65.0971 13.7242 67.2472 18.5903 67.7564 21.9286L68.2091 24.7577H60.7403H53.2714L52.8753 20.2311C52.7056 17.7415 52.3661 14.969 52.1963 14.0637C51.8569 12.4794 51.97 12.4228 55.8176 11.2346C58.0243 10.5556 60.0047 9.76344 60.1744 9.48053C60.7403 8.51863 61.4192 8.85812 62.947 10.8951ZM21.6986 14.8558C28.6016 18.8732 30.1293 28.3224 24.9803 34.3767C19.5484 40.7139 9.64655 40.4876 4.61074 33.924C0.536825 28.5487 1.15923 21.3062 6.19504 16.3836C10.0426 12.5925 16.7759 11.9136 21.6986 14.8558ZM50.4989 16.6665C50.7252 18.8166 51.0081 21.4759 51.1213 22.6076L51.4042 24.7577H43.9919H36.5231L36.9192 20.0614C37.485 12.3096 36.9757 12.8755 44.0485 12.8755H50.1594L50.4989 16.6665ZM34.9954 30.812C35.0519 32.9621 35.2783 35.7347 35.5046 37.036L35.9573 39.3559L33.4111 40.0349C31.9965 40.3744 29.903 41.1665 28.7147 41.7324L26.5646 42.864L25.1501 41.11C24.3579 40.1481 23.6789 39.1862 23.6789 38.9598C23.6789 38.7335 24.4711 37.8282 25.433 36.8663C27.5265 34.8859 29.1108 32.0002 29.6201 29.1145C30.0161 27.0776 30.0727 27.021 32.5058 27.021H34.9954V30.812ZM51.1213 29.1145C51.0081 30.3028 50.7252 32.9621 50.4989 35.0557L50.1594 38.9033H44.0485C36.9757 38.9033 37.485 39.4691 36.9192 31.6607L36.5231 27.021H43.9919H51.4042L51.1213 29.1145ZM67.7564 29.9067C67.2472 33.1885 64.6444 38.9033 62.6075 41.3929C61.3061 42.9206 61.1363 42.9772 59.8349 42.1284C59.0994 41.6758 57.0058 40.8271 55.1386 40.3178C51.97 39.3559 51.8569 39.2993 52.1963 37.715C52.3661 36.8097 52.7056 34.0372 52.8753 31.5476L53.2714 27.021H60.7403H68.2091L67.7564 29.9067ZM48.2356 40.9402C49.4804 41.3929 49.3672 42.4679 47.6698 46.0326C45.8026 50.0499 44.0485 50.9553 42.0681 49.088C40.1443 47.2774 38.0508 41.7324 39.0693 41.11C39.918 40.5441 46.9342 40.431 48.2356 40.9402ZM36.9757 43.2601C37.1455 44.1088 37.8245 45.8063 38.4469 47.0511C39.0127 48.2959 39.4088 49.371 39.2956 49.5407C38.7864 49.9934 33.4111 47.8998 30.7517 46.2024C28.2055 44.6181 28.0923 44.4483 29.1674 43.7127C30.4122 42.864 35.6744 41.2231 36.1836 41.506C36.4099 41.6192 36.7494 42.4114 36.9757 43.2601ZM58.1375 43.3732C59.3257 44.0522 59.3257 44.1654 58.5335 45.0707C57.4019 46.3155 52.3095 48.8051 49.8199 49.371L47.9527 49.767L49.0277 47.5603C49.6501 46.3721 50.4423 44.5049 50.7818 43.3732L51.4608 41.2797L54.1201 42.0153C55.6479 42.3548 57.4019 43.0338 58.1375 43.3732Z" fill="#FAFAFA"/>
<path d="M12.4188 16.6098C11.174 17.4586 9.70286 17.9678 8.34489 17.9678H6.13818V21.8154C6.13818 28.7184 8.57122 33.8674 12.8149 36.0175C15.2479 37.2623 16.8322 36.8662 19.3218 34.4898C22.2641 31.7173 23.2826 28.9447 23.5655 23.2865L23.7918 18.1375L21.1325 17.8546C19.6613 17.6849 17.7375 17.0059 16.8322 16.3269C14.9084 14.9124 14.8518 14.9124 12.4188 16.6098ZM20.3969 19.6653C21.9246 19.6653 21.9812 19.7784 21.9812 22.3812C21.9812 26.8512 20.5666 30.5856 18.0204 32.9055C16.7756 34.0371 15.3611 34.9425 14.9084 34.9425C13.4939 34.9425 10.2121 31.6041 9.2502 29.1145C8.74096 27.8131 8.28831 25.2669 8.23172 23.3997L8.11856 20.1179L10.8345 19.3824C12.3622 18.9863 13.8334 18.4205 14.1729 18.081C14.6255 17.6283 15.3611 17.7981 16.8322 18.5902C17.9073 19.156 19.5482 19.6653 20.3969 19.6653Z" fill="#FAFAFA"/>
<path d="M15.9271 24.8709C13.6072 27.1907 12.8151 27.7 12.2492 27.1342C11.3439 26.2288 10.0991 26.2854 10.0991 27.1907C10.0991 28.1526 11.9098 29.8501 12.8716 29.8501C14.0033 29.8501 19.7181 24.0221 19.7181 22.8905C19.7181 21.3628 19.0957 21.7023 15.9271 24.8709Z" fill="#FAFAFA"/>
</svg>
