<svg width="32" height="32" viewBox="0 0 32 32" fill="none" xmlns="http://www.w3.org/2000/svg">
<path d="M16 0.699951C7.56001 0.699951 0.700012 7.55995 0.700012 16C0.700012 24.44 7.56001 31.2999 16 31.2999C24.44 31.2999 31.3 24.44 31.3 16C31.3 7.55995 24.44 0.699951 16 0.699951ZM16 28.7C11.98 28.7 8.40001 26.8199 6.07001 23.8899C7.69161 21.7686 9.95322 20.2258 12.52 19.49C11.5948 18.9035 10.8328 18.0927 10.3048 17.1329C9.77685 16.1731 9.5 15.0954 9.50001 14C9.50001 12.276 10.1848 10.6227 11.4038 9.40376C12.6228 8.18477 14.2761 7.49995 16 7.49995C17.7239 7.49995 19.3772 8.18477 20.5962 9.40376C21.8152 10.6227 22.5 12.276 22.5 14C22.5008 15.0969 22.2243 16.1763 21.6964 17.1378C21.1684 18.0993 20.406 18.9119 19.48 19.5C22.0471 20.2351 24.3089 21.778 25.93 23.9C24.7437 25.3967 23.2343 26.6059 21.5147 27.4371C19.7952 28.2684 17.9099 28.7 16 28.7Z" fill="#435188"/>
</svg>
