<svg width="51" height="52" viewBox="0 0 51 52" fill="none" xmlns="http://www.w3.org/2000/svg">
<path d="M18.1632 0.547138C15.6549 1.32253 14.2674 3.42717 14.2674 6.63951V9.35339H9.19741C2.79326 9.35339 1.19222 10.0734 0.338329 13.3411C-0.0352464 14.7811 -0.0886144 17.3842 0.124858 20.1535C0.284961 22.5905 0.605169 30.0675 0.818641 36.7691C1.03211 43.4707 1.40569 49.2861 1.67253 49.7292C2.95336 51.7785 5.08808 52 25.4746 52C45.8612 52 47.9959 51.7785 49.2768 49.7292C49.5436 49.2861 49.9172 43.4707 50.1307 36.7691C50.3441 30.0675 50.6643 22.4797 50.8244 19.932C51.5716 10.9596 50.184 9.35339 41.7519 9.35339H36.6819V6.63951C36.6819 3.3164 35.2944 1.32253 32.5192 0.491753C30.1177 -0.172871 20.5114 -0.172871 18.1632 0.547138ZM33.7467 3.53794C34.7073 4.53487 35.0809 5.47642 35.0809 7.13798C35.0809 10.018 34.227 10.018 33.8534 7.08259C33.6933 5.80873 33.3197 4.47949 32.9462 4.14717C32.1456 3.3164 20.8316 2.98409 18.9638 3.75948C17.6296 4.25795 17.4695 4.64564 17.4695 6.86105C17.4695 8.68876 17.256 9.35339 16.6689 9.35339C15.2814 9.35339 15.6549 5.14411 17.2026 3.53794C18.4301 2.20869 18.7503 2.15331 25.4746 2.15331C32.199 2.15331 32.5192 2.20869 33.7467 3.53794ZM31.8788 7.4149V9.35339H25.4746H19.0705V7.4149V5.47642H25.4746H31.8788V7.4149ZM48.1027 12.455C48.7431 13.1196 48.9566 14.5042 48.9566 18.6581V24.0305L46.8218 26.3566L44.7405 28.7382H25.4746H6.20881L4.12746 26.3566L1.99274 24.0305V18.6581C1.99274 14.5042 2.20621 13.1196 2.84662 12.455C3.54041 11.6796 6.36891 11.5688 25.4746 11.5688C44.5804 11.5688 47.4089 11.6796 48.1027 12.455ZM12.7731 30.3998L20.9384 30.6767L21.0985 33.169C21.3653 36.5475 22.3793 37.5998 25.4746 37.5998C28.57 37.5998 29.584 36.5475 29.8508 33.169L30.0109 30.6767L38.1762 30.3998C45.4876 30.1782 46.4483 30.0121 47.1421 29.0705C47.7825 28.129 47.8892 29.2367 47.8892 38.3199C47.8892 47.9569 47.8358 48.6769 46.8752 49.2307C46.1814 49.5631 38.4964 49.7846 25.4746 49.7846C12.4529 49.7846 4.76787 49.5631 4.07409 49.2307C3.11346 48.6769 3.0601 47.9569 3.0601 38.3199C3.0601 29.2367 3.16683 28.129 3.80725 29.0705C4.50103 30.0121 5.46166 30.1782 12.7731 30.3998ZM28.0363 32.5044C28.2498 34.7752 27.3959 35.9383 25.528 35.9383C23.6601 35.9383 22.8063 34.9967 22.8063 32.8921C22.8063 30.6213 23.1798 30.289 25.7415 30.5105C27.7161 30.6767 27.8762 30.7875 28.0363 32.5044Z" fill="#FAFAFA"/>
</svg>
